<svg xmlns="http://www.w3.org/2000/svg" viewBox="0 0 320 106.43"><defs><style>.cls-1{fill:#fff;}</style></defs><g id="Layer_2" data-name="Layer 2"><g id="Capa_1" data-name="Capa 1"><path class="cls-1" d="M156.87,77.31a14.52,14.52,0,0,1-5-11.86,21.06,21.06,0,0,1,3.42-11.34A22,22,0,0,1,174,44.26q5.34.1,8.22,2.77A8.46,8.46,0,0,1,185,53.79a9.05,9.05,0,0,1-1.95,5.66,5.7,5.7,0,0,1-4.76,2.24,5.3,5.3,0,0,1-2.93-.78,2.24,2.24,0,0,1-1.07-2,5.68,5.68,0,0,1,.23-1.29c.14-.48.25-.82.31-1a5.65,5.65,0,0,0,.55-2.24,2,2,0,0,0-.58-1.62,2.6,2.6,0,0,0-1.77-.6,6.37,6.37,0,0,0-4.21,1.57,11.62,11.62,0,0,0-3.23,4.4,16.18,16.18,0,0,0-1.33,6.15q-.25,9.31,9.53,9.5a20,20,0,0,0,8.64-2,34.54,34.54,0,0,0,9.24-6.44,3.66,3.66,0,0,1,2.64-1.08,2.31,2.31,0,0,1,2,1,4.26,4.26,0,0,1,.65,2.66,7,7,0,0,1-2,4.94,31.45,31.45,0,0,1-11.09,7A33.3,33.3,0,0,1,171.52,82Q162,81.86,156.87,77.31Z"/><path class="cls-1" d="M240.68,59.33a4.77,4.77,0,0,1,.61,2.66c-.08,2.57-1,4.08-2.93,4.53a53.06,53.06,0,0,1-12.85,1.68A19.74,19.74,0,0,1,218,78.86a20.19,20.19,0,0,1-12.42,3.82,19.82,19.82,0,0,1-9.87-2.51,15.73,15.73,0,0,1-6.08-6.31,16.85,16.85,0,0,1-1.9-8.38,21.16,21.16,0,0,1,3.11-10.82,19.9,19.9,0,0,1,8-7.31,22.49,22.49,0,0,1,11-2.49q7.35.14,11.74,4.43a16.5,16.5,0,0,1,5,10.5,69.76,69.76,0,0,0,10.9-1.41,7.18,7.18,0,0,1,1.36-.13A2.14,2.14,0,0,1,240.68,59.33ZM212,72.2a10.76,10.76,0,0,0,3.22-6,12,12,0,0,1-4.48-4.51,11.34,11.34,0,0,1-1.45-5.8,12.45,12.45,0,0,1,.37-2.56h-.48a8.07,8.07,0,0,0-6.53,3c-1.77,2-2.7,4.91-2.81,8.66-.07,2.94.56,5.2,1.91,6.78a6.3,6.3,0,0,0,4.81,2.42A7.8,7.8,0,0,0,212,72.2Z"/><path class="cls-1" d="M289.87,66.92a4.34,4.34,0,0,1,.64,2.67,6.6,6.6,0,0,1-2,4.94,44.51,44.51,0,0,1-8.9,6.69,18.19,18.19,0,0,1-9.47,2.67q-7.38-.12-11.05-7.35a26.49,26.49,0,0,1-7.28,5.56,16.5,16.5,0,0,1-7.16,1.32A13.43,13.43,0,0,1,235,79.59,12.46,12.46,0,0,1,231.47,70a23,23,0,0,1,3.61-11.86,26.53,26.53,0,0,1,9.31-8.81,30,30,0,0,1,13.05-3.9C259,35.07,264.84,19,268.5,11.69s5.37-11.8,11-11.69a8.79,8.79,0,0,1,6.84,3.26q2.67,3.2,2.5,9.53c-.16,6-2.51,21.14-6.28,29.1a149.21,149.21,0,0,1-14.91,24.46q.24,4.65,1.5,6.69a3.82,3.82,0,0,0,3.29,2.06,9.22,9.22,0,0,0,5.38-1.82A66.52,66.52,0,0,0,285.25,67a3.77,3.77,0,0,1,2.65-1.07A2.37,2.37,0,0,1,289.87,66.92ZM252,74.2a25.45,25.45,0,0,0,4.77-4.53,44.87,44.87,0,0,1-.69-9.73c0-1.28.15-3.37.36-6.25A17,17,0,0,0,243.6,69.42c-.1,3.91,1.46,5.9,4.68,6A6.58,6.58,0,0,0,252,74.2Zm22-52.82a82.8,82.8,0,0,0-3.53,14.1q-1.56,8.73-2.4,18.27c7.59-12.93,12.6-25.77,12.81-33.68.07-2,1-6,.61-7.18s-.88-1.7-1.46-1.71C278.81,11.16,275.32,17.79,274,21.38Z"/><path class="cls-1" d="M319.35,69.89a4.29,4.29,0,0,1,.65,2.66,7.76,7.76,0,0,1-1.79,4.94A18.24,18.24,0,0,1,311,82.73a26.19,26.19,0,0,1-10.56,1.74q-9.31-.18-14.32-4.89T281.28,67a20.12,20.12,0,0,1,3.09-10.26,20.81,20.81,0,0,1,8-7.44,22.83,22.83,0,0,1,11.36-2.6q5.63.12,8.93,2.95a9,9,0,0,1,3.19,7.56,12.1,12.1,0,0,1-5.05,9.42q-4.92,3.89-16.5,6c1.48,2.5,4.06,3.77,7.74,3.83a12.6,12.6,0,0,0,6.59-1.4,30,30,0,0,0,6.1-5,3.58,3.58,0,0,1,2.64-1.16A2.34,2.34,0,0,1,319.35,69.89Zm-23.62-12a14.05,14.05,0,0,0-2.7,8.3v.16a24.73,24.73,0,0,0,9.11-3.2Q305.48,61,305.57,58a3.1,3.1,0,0,0-.95-2.46,3.88,3.88,0,0,0-2.74-1A7.33,7.33,0,0,0,295.73,57.88Z"/><rect class="cls-1" x="117.44" y="58.82" width="23.53" height="12.98" rx="0.89"/><path class="cls-1" d="M71.46,78.21a13.84,13.84,0,0,1-3.35-10.06,24,24,0,0,1,4.14-12.77,29.19,29.19,0,0,1,10.34-9.55A26,26,0,0,1,96,42.4a4.46,4.46,0,0,1,3,.77,5.56,5.56,0,0,1,1.21,2.61,25.22,25.22,0,0,1,4.3-.26,6.1,6.1,0,0,1,3.76,1.09,3.38,3.38,0,0,1,1.25,2.9,39.25,39.25,0,0,1-1.21,6.76c-.85,3.43-1.52,6.72-2,9.84a82,82,0,0,0-.9,10.54c-.07,2.14-.63,3.67-1.72,4.59s-2.81,1.34-5.2,1.3a7.89,7.89,0,0,1-5.12-1.49q-1.65-1.45-1.57-4.57L92,75.13q-3.37,7.22-11.14,7.08A12.43,12.43,0,0,1,71.46,78.21Zm18.89-7.69q2.46-3.27,4.52-11.71l2.18-8.51a13.49,13.49,0,0,0-7.84,2.52,18.82,18.82,0,0,0-5.92,6.71,19.75,19.75,0,0,0-2.4,9A5.49,5.49,0,0,0,82,72.35,3.9,3.9,0,0,0,85,73.72Q87.91,73.78,90.35,70.52Z"/><path class="cls-1" d="M83.92,86.16a6.69,6.69,0,0,1,.23,3.36,10.92,10.92,0,0,1-2.53,6.1A45.1,45.1,0,0,1,71.75,104a18.18,18.18,0,0,1-10.8,2.4,13.73,13.73,0,0,1-9.41-4.24q-3.61-3.81-6.13-12.6-2-7.05-3.31-10.43a14.56,14.56,0,0,0-2.73-4.91,7.13,7.13,0,0,0-3.84-2q-.64,2.08-3.83,13.1-1.38,5-1.71,6.06-1.71,6.06-4.83,9.12c-2.07,2.05-4.94,2.93-8.57,2.67A14.92,14.92,0,0,1,6.52,98.39,23.6,23.6,0,0,1,.88,86.83,47.66,47.66,0,0,1,.52,70.54Q2.77,53.66,9.64,41.81T26.81,24.16a39.4,39.4,0,0,1,22.64-4.87c5.72.42,10.39,1.73,14,4A17.86,17.86,0,0,1,71,31.91,23.11,23.11,0,0,1,72.3,43.66a28.28,28.28,0,0,1-3.84,10.81,29.36,29.36,0,0,1-8.38,9,32.88,32.88,0,0,1-12.35,5.28,12,12,0,0,1,6.05,4.7,33.38,33.38,0,0,1,3.52,8.87,30.79,30.79,0,0,0,3.78,9.19,6.93,6.93,0,0,0,5.31,3.23A8.92,8.92,0,0,0,72.13,93a50.29,50.29,0,0,0,7.51-6.9,3.32,3.32,0,0,1,2.6-1.23A1.9,1.9,0,0,1,83.92,86.16Zm-60.72-15c-2-.15-3.35-.78-3.95-1.91a6,6,0,0,1-.63-3.69,5.54,5.54,0,0,1,1.89-3.72,4.61,4.61,0,0,1,3.37-1.17L42.1,67c-6.55-6.54-15.62-9.32-15.44-10,1.61-5.66,3.07-8.78,4.39-13s4.15-6.29,8.39-6q5.1.38,4.42,5.49a13.1,13.1,0,0,1-.32,1.7L38.63,61.77a20.71,20.71,0,0,0,9.16-2,18.81,18.81,0,0,0,7.2-6,19.31,19.31,0,0,0,3.62-9.16c.57-4.21-.28-7.62-2.52-10.22S50.25,30.39,45.31,30a26.34,26.34,0,0,0-16,3.74q-7.23,4.4-12.17,13.71T10.37,70.55a45.89,45.89,0,0,0-.32,11.12A19.46,19.46,0,0,0,12,88.81c.93,1.62,1.9,2.46,2.92,2.54A2.41,2.41,0,0,0,17,90.19a14,14,0,0,0,1.77-4.13Z"/></g></g></svg>