<svg xmlns="http://www.w3.org/2000/svg" xmlns:xlink="http://www.w3.org/1999/xlink" viewBox="0 0 463.69 376.25"><defs><style>.cls-1{fill:#f1f1f4;}.cls-2{fill:#e0f3ff;}.cls-3{fill:url(#linear-gradient);}.cls-4{fill:url(#linear-gradient-2);}.cls-5{fill:#e5e2ff;}.cls-6{fill:url(#linear-gradient-3);}.cls-7,.cls-8{opacity:0.62;}.cls-102,.cls-110,.cls-112,.cls-116,.cls-12,.cls-13,.cls-16,.cls-17,.cls-18,.cls-21,.cls-23,.cls-29,.cls-32,.cls-34,.cls-37,.cls-38,.cls-39,.cls-40,.cls-41,.cls-42,.cls-43,.cls-44,.cls-45,.cls-46,.cls-47,.cls-48,.cls-49,.cls-50,.cls-51,.cls-52,.cls-53,.cls-56,.cls-57,.cls-58,.cls-59,.cls-60,.cls-61,.cls-65,.cls-7,.cls-76,.cls-79,.cls-8,.cls-80,.cls-81,.cls-85,.cls-86,.cls-9,.cls-91,.cls-93,.cls-94,.cls-95,.cls-96,.cls-97{isolation:isolate;}.cls-7{fill:url(#linear-gradient-4);}.cls-8{fill:url(#linear-gradient-5);}.cls-116,.cls-12,.cls-13,.cls-21,.cls-23,.cls-38,.cls-39,.cls-40,.cls-41,.cls-42,.cls-43,.cls-44,.cls-45,.cls-46,.cls-48,.cls-50,.cls-51,.cls-52,.cls-53,.cls-56,.cls-58,.cls-59,.cls-60,.cls-61,.cls-81,.cls-9{opacity:0.5;}.cls-9{fill:url(#linear-gradient-6);}.cls-10{fill:#fff;}.cls-11{fill:url(#linear-gradient-7);}.cls-12{fill:url(#radial-gradient);}.cls-13{fill:url(#radial-gradient-2);}.cls-14{fill:url(#linear-gradient-8);}.cls-15{fill:url(#linear-gradient-9);}.cls-16,.cls-17,.cls-18,.cls-47{opacity:0.76;}.cls-16{fill:url(#linear-gradient-10);}.cls-17{fill:url(#linear-gradient-11);}.cls-18{fill:url(#linear-gradient-12);}.cls-19{fill:#fe9083;}.cls-20{fill:url(#linear-gradient-13);}.cls-21{fill:url(#linear-gradient-14);}.cls-22{fill:url(#linear-gradient-15);}.cls-23{fill:url(#linear-gradient-16);}.cls-24{fill:url(#linear-gradient-17);}.cls-25{fill:url(#linear-gradient-18);}.cls-26{fill:#cb4d7a;}.cls-27{fill:#ee8183;}.cls-28{fill:url(#linear-gradient-19);}.cls-29,.cls-34,.cls-65,.cls-76,.cls-79,.cls-80,.cls-91,.cls-93{opacity:0.6;}.cls-29{fill:url(#linear-gradient-20);}.cls-30{fill:url(#linear-gradient-21);}.cls-31{fill:#e28183;}.cls-32,.cls-37{opacity:0.91;}.cls-32{fill:url(#linear-gradient-22);}.cls-33{fill:url(#linear-gradient-23);}.cls-34{fill:url(#linear-gradient-24);}.cls-35{fill:url(#linear-gradient-25);}.cls-36{fill:url(#linear-gradient-26);}.cls-37{fill:url(#linear-gradient-27);}.cls-38{fill:url(#linear-gradient-28);}.cls-39{fill:url(#linear-gradient-29);}.cls-40{fill:url(#linear-gradient-30);}.cls-41{fill:url(#linear-gradient-31);}.cls-42{fill:url(#linear-gradient-32);}.cls-43{fill:url(#linear-gradient-33);}.cls-44{fill:url(#linear-gradient-34);}.cls-45{fill:url(#linear-gradient-35);}.cls-46{fill:url(#linear-gradient-36);}.cls-47{fill:url(#linear-gradient-37);}.cls-48{fill:url(#linear-gradient-38);}.cls-49,.cls-57,.cls-94,.cls-95,.cls-96,.cls-97{opacity:0.3;}.cls-49{fill:url(#linear-gradient-39);}.cls-50{fill:url(#linear-gradient-40);}.cls-51{fill:url(#linear-gradient-41);}.cls-52{fill:url(#linear-gradient-42);}.cls-53{fill:url(#linear-gradient-43);}.cls-54{fill:url(#linear-gradient-44);}.cls-55{fill:#ebefff;}.cls-56{fill:url(#linear-gradient-45);}.cls-57{fill:url(#linear-gradient-46);}.cls-58{fill:url(#linear-gradient-47);}.cls-59{fill:url(#linear-gradient-48);}.cls-60{fill:url(#linear-gradient-49);}.cls-61{fill:#7a4ac0;}.cls-62{fill:url(#linear-gradient-50);}.cls-63{fill:url(#linear-gradient-51);}.cls-64{fill:url(#linear-gradient-52);}.cls-65{fill:url(#linear-gradient-53);}.cls-66{fill:#38368e;}.cls-67{fill:url(#linear-gradient-54);}.cls-68{fill:url(#linear-gradient-55);}.cls-69{fill:#ffebed;}.cls-70{fill:#7f9ec9;}.cls-71{fill:#131163;}.cls-72{fill:#c6659c;}.cls-73{fill:#cb5f7d;}.cls-74{fill:#9f4a8b;}.cls-75{fill:#ffbcaf;}.cls-76{fill:url(#linear-gradient-56);}.cls-77{fill:url(#linear-gradient-57);}.cls-78{fill:#d2726c;}.cls-79{fill:url(#linear-gradient-58);}.cls-80{fill:url(#linear-gradient-59);}.cls-81{fill:url(#linear-gradient-60);}.cls-82{fill:url(#linear-gradient-61);}.cls-83{fill:url(#linear-gradient-62);}.cls-84{fill:url(#linear-gradient-63);}.cls-85,.cls-86{opacity:0.8;}.cls-85{fill:url(#linear-gradient-64);}.cls-86{fill:url(#linear-gradient-65);}.cls-87{fill:#34c7ff;}.cls-88{fill:url(#linear-gradient-66);}.cls-89{fill:url(#linear-gradient-67);}.cls-90{fill:url(#linear-gradient-68);}.cls-91{fill:#36d1f7;}.cls-92{fill:#744ca2;}.cls-93{fill:url(#linear-gradient-69);}.cls-94{fill:url(#linear-gradient-70);}.cls-95{fill:url(#linear-gradient-71);}.cls-96{fill:url(#linear-gradient-72);}.cls-97{fill:url(#linear-gradient-73);}.cls-98{fill:#d1d4fb;}.cls-99{fill:#e0ffff;}.cls-100{fill:url(#linear-gradient-74);}.cls-101{fill:url(#linear-gradient-75);}.cls-102{opacity:0.81;fill:url(#linear-gradient-76);}.cls-103{fill:#473da2;}.cls-104{fill:url(#linear-gradient-77);}.cls-105{fill:url(#linear-gradient-78);}.cls-106{fill:url(#linear-gradient-79);}.cls-107{fill:url(#linear-gradient-80);}.cls-108{fill:url(#linear-gradient-81);}.cls-109{fill:url(#linear-gradient-82);}.cls-110,.cls-112{opacity:0.73;}.cls-110{fill:url(#linear-gradient-83);}.cls-111{fill:#953da2;}.cls-112{fill:url(#linear-gradient-84);}.cls-113,.cls-114,.cls-115,.cls-116,.cls-117,.cls-121,.cls-122,.cls-123,.cls-124{fill-rule:evenodd;}.cls-113{fill:url(#linear-gradient-85);}.cls-114{fill:url(#linear-gradient-86);}.cls-115{fill:url(#linear-gradient-87);}.cls-116{fill:#601734;}.cls-117{fill:#b3d9ff;}.cls-118{fill:#ff1d9c;}.cls-119{fill:#6877ff;}.cls-120{fill:#4f31e0;}.cls-121{fill:url(#linear-gradient-88);}.cls-122{fill:url(#linear-gradient-89);}.cls-123{fill:url(#linear-gradient-90);}.cls-124{fill:url(#linear-gradient-91);}</style><linearGradient id="linear-gradient" x1="-35.14" y1="7.35" x2="-35.14" y2="78.54" gradientTransform="matrix(0.91, -0.42, -0.42, -0.91, 138.18, 200.12)" gradientUnits="userSpaceOnUse"><stop offset="0" stop-color="#dbccff"/><stop offset="1" stop-color="#d1bbff"/></linearGradient><linearGradient id="linear-gradient-2" x1="-35.14" y1="4.57" x2="-35.14" y2="75.76" gradientTransform="matrix(0.91, -0.42, -0.42, -0.91, 138.18, 200.12)" gradientUnits="userSpaceOnUse"><stop offset="0" stop-color="#b5a6e7"/><stop offset="1" stop-color="#7760bf"/></linearGradient><linearGradient id="linear-gradient-3" x1="-35.07" y1="22.27" x2="-35.07" y2="52.28" xlink:href="#linear-gradient-2"/><linearGradient id="linear-gradient-4" x1="-40.1" y1="52.83" x2="-31.58" y2="52.83" gradientTransform="matrix(0.91, -0.42, -0.42, -0.91, 138.18, 200.12)" gradientUnits="userSpaceOnUse"><stop offset="0" stop-color="#8b8be0"/><stop offset="1" stop-color="#a177b7"/></linearGradient><linearGradient id="linear-gradient-5" x1="-35.09" y1="49.7" x2="-35.09" y2="54.86" gradientTransform="matrix(0.91, -0.42, -0.42, -0.91, 138.18, 200.12)" gradientUnits="userSpaceOnUse"><stop offset="0" stop-color="#fff"/><stop offset="1" stop-color="#a177b7"/></linearGradient><linearGradient id="linear-gradient-6" x1="-30.51" y1="19.21" x2="-30.51" y2="52.29" gradientTransform="matrix(0.91, -0.42, -0.42, -0.91, 138.18, 200.12)" gradientUnits="userSpaceOnUse"><stop offset="0"/><stop offset="1" stop-color="#fff"/></linearGradient><linearGradient id="linear-gradient-7" x1="280.3" y1="-22.01" x2="280.3" y2="67.19" gradientTransform="matrix(1, 0, 0, -1, -65.3, 341.03)" gradientUnits="userSpaceOnUse"><stop offset="0" stop-color="#6456c0"/><stop offset="1" stop-color="#5f2c95"/></linearGradient><radialGradient id="radial-gradient" cx="498.41" cy="200.72" r="27.03" gradientTransform="matrix(0, 0.66, 1.71, 0, -170.38, 1.25)" gradientUnits="userSpaceOnUse"><stop offset="0" stop-color="#4b474b"/><stop offset="1"/></radialGradient><radialGradient id="radial-gradient-2" cx="348.88" cy="130.06" r="27.03" gradientTransform="matrix(0.66, 0, 0, -1.71, 23.37, 551.74)" xlink:href="#radial-gradient"/><linearGradient id="linear-gradient-8" x1="251.43" y1="9.35" x2="274.82" y2="9.35" gradientTransform="matrix(1, 0, 0, -1, -65.3, 341.03)" gradientUnits="userSpaceOnUse"><stop offset="0" stop-color="#9e8cef"/><stop offset="1" stop-color="#caafee"/></linearGradient><linearGradient id="linear-gradient-9" x1="-272.95" y1="9.35" x2="-249.55" y2="9.35" gradientTransform="translate(-32.15 341.03) rotate(180)" xlink:href="#linear-gradient-8"/><linearGradient id="linear-gradient-10" x1="277.18" y1="-22.01" x2="277.18" y2="67.19" gradientTransform="matrix(1, 0, 0, -1, -65.3, 341.03)" gradientUnits="userSpaceOnUse"><stop offset="0" stop-color="#ccf"/><stop offset="1" stop-color="#755cbb"/></linearGradient><linearGradient id="linear-gradient-11" x1="222.25" y1="59.56" x2="222.25" y2="83.89" gradientTransform="matrix(1, 0, 0, -1, 0, 377.99)" xlink:href="#linear-gradient-10"/><linearGradient id="linear-gradient-12" x1="194.07" y1="68.5" x2="194.07" y2="92.34" gradientTransform="matrix(1, 0, 0, -1, 0, 377.99)" xlink:href="#linear-gradient-10"/><linearGradient id="linear-gradient-13" x1="283.6" y1="201.54" x2="283.6" y2="237.15" gradientTransform="matrix(1, 0, 0, -1, -65.3, 341.03)" gradientUnits="userSpaceOnUse"><stop offset="0" stop-color="#d5cdf8"/><stop offset="1" stop-color="#f3edfb"/></linearGradient><linearGradient id="linear-gradient-14" x1="265.21" y1="219.34" x2="301.84" y2="219.34" xlink:href="#linear-gradient-10"/><linearGradient id="linear-gradient-15" x1="273.05" y1="59.19" x2="273.05" y2="238.7" xlink:href="#linear-gradient-8"/><linearGradient id="linear-gradient-16" x1="198.59" y1="171.09" x2="242.29" y2="171.09" xlink:href="#linear-gradient-10"/><linearGradient id="linear-gradient-17" x1="197.24" y1="120.82" x2="197.24" y2="204.73" gradientTransform="matrix(1, 0, 0, -1, -65.3, 341.03)" gradientUnits="userSpaceOnUse"><stop offset="0" stop-color="#9e8cef"/><stop offset="1" stop-color="#dac7f3"/></linearGradient><linearGradient id="linear-gradient-18" x1="341.53" y1="144.99" x2="397.84" y2="144.99" gradientTransform="matrix(1, 0, 0, -1, -65.3, 341.03)" gradientUnits="userSpaceOnUse"><stop offset="0" stop-color="#a999f1"/><stop offset="1" stop-color="#dac7f3"/></linearGradient><linearGradient id="linear-gradient-19" x1="178.94" y1="216.16" x2="178.94" y2="238.3" gradientTransform="matrix(1, 0, 0, -1, -65.3, 341.03)" gradientUnits="userSpaceOnUse"><stop offset="0.02" stop-color="#ffc2a9"/><stop offset="1" stop-color="#ff9595"/></linearGradient><linearGradient id="linear-gradient-20" x1="192.9" y1="216.7" x2="192.9" y2="253.32" gradientTransform="matrix(1, 0, 0, -1, -65.3, 341.03)" gradientUnits="userSpaceOnUse"><stop offset="0" stop-color="#ffeadb"/><stop offset="0.99" stop-color="#c27cb6"/></linearGradient><linearGradient id="linear-gradient-21" x1="191.67" y1="191.78" x2="191.67" y2="248.21" xlink:href="#linear-gradient-19"/><linearGradient id="linear-gradient-22" x1="181.57" y1="200.59" x2="199.32" y2="200.59" gradientTransform="matrix(1, 0, 0, -1, -65.3, 341.03)" gradientUnits="userSpaceOnUse"><stop offset="0.02" stop-color="#d1a1d6"/><stop offset="0.99" stop-color="#bd89c4"/></linearGradient><linearGradient id="linear-gradient-23" x1="399" y1="157.39" x2="399" y2="232.84" xlink:href="#linear-gradient-19"/><linearGradient id="linear-gradient-24" x1="407.9" y1="181.58" x2="407.9" y2="219.09" xlink:href="#linear-gradient-20"/><linearGradient id="linear-gradient-25" x1="415.32" y1="194.53" x2="415.32" y2="211.34" gradientTransform="matrix(1, 0, 0, -1, -65.3, 341.03)" gradientUnits="userSpaceOnUse"><stop offset="0" stop-color="#ffb0b0"/><stop offset="0.98" stop-color="#ffc2a9"/></linearGradient><linearGradient id="linear-gradient-26" x1="425.06" y1="191.94" x2="425.06" y2="201.16" xlink:href="#linear-gradient-25"/><linearGradient id="linear-gradient-27" x1="385.63" y1="173.56" x2="402.78" y2="173.56" xlink:href="#linear-gradient-22"/><linearGradient id="linear-gradient-28" x1="361.79" y1="114.37" x2="361.79" y2="198.88" xlink:href="#linear-gradient-10"/><linearGradient id="linear-gradient-29" x1="175.69" y1="131.41" x2="317" y2="131.41" xlink:href="#linear-gradient-10"/><linearGradient id="linear-gradient-30" x1="300.31" y1="155.05" x2="327.31" y2="155.05" gradientTransform="matrix(1, 0, 0, -1, -65.3, 341.03)" gradientUnits="userSpaceOnUse"><stop offset="0" stop-color="#ccedff"/><stop offset="1" stop-color="#755cbb"/></linearGradient><linearGradient id="linear-gradient-31" x1="275.8" y1="107.63" x2="315.51" y2="107.63" xlink:href="#linear-gradient-30"/><linearGradient id="linear-gradient-32" x1="277.64" y1="89.71" x2="320.06" y2="89.71" xlink:href="#linear-gradient-30"/><linearGradient id="linear-gradient-33" x1="241.13" y1="134.15" x2="241.13" y2="181.76" xlink:href="#linear-gradient-30"/><linearGradient id="linear-gradient-34" x1="244.96" y1="130.16" x2="244.96" y2="166.24" xlink:href="#linear-gradient-30"/><linearGradient id="linear-gradient-35" x1="187.93" y1="176.26" x2="187.93" y2="203.54" xlink:href="#linear-gradient-30"/><linearGradient id="linear-gradient-36" x1="210" y1="200.27" x2="221" y2="200.27" xlink:href="#linear-gradient-30"/><linearGradient id="linear-gradient-37" x1="329.45" y1="134.13" x2="329.45" y2="184.67" xlink:href="#linear-gradient-10"/><linearGradient id="linear-gradient-38" x1="386.27" y1="144.99" x2="386.27" y2="171.41" xlink:href="#linear-gradient-10"/><linearGradient id="linear-gradient-39" x1="356.31" y1="146.18" x2="356.31" y2="166.37" xlink:href="#linear-gradient-10"/><linearGradient id="linear-gradient-40" x1="182.22" y1="174.52" x2="182.22" y2="182.02" xlink:href="#linear-gradient-30"/><linearGradient id="linear-gradient-41" x1="202.23" y1="151.64" x2="202.23" y2="192.64" xlink:href="#linear-gradient-10"/><linearGradient id="linear-gradient-42" x1="307.67" y1="180.51" x2="307.67" y2="211.34" xlink:href="#linear-gradient-30"/><linearGradient id="linear-gradient-43" x1="267.24" y1="184.67" x2="267.24" y2="227.23" xlink:href="#linear-gradient-30"/><linearGradient id="linear-gradient-44" x1="252.9" y1="176.89" x2="323.99" y2="176.89" gradientTransform="matrix(1, 0, 0, -1, -65.3, 341.03)" gradientUnits="userSpaceOnUse"><stop offset="0" stop-color="#8642a0"/><stop offset="1" stop-color="#6456c0"/></linearGradient><linearGradient id="linear-gradient-45" x1="259" y1="217.88" x2="305.29" y2="217.88" xlink:href="#linear-gradient-10"/><linearGradient id="linear-gradient-46" x1="377.95" y1="148.01" x2="377.95" y2="174.78" xlink:href="#linear-gradient-10"/><linearGradient id="linear-gradient-47" x1="340.13" y1="117.81" x2="340.13" y2="198.88" xlink:href="#linear-gradient-10"/><linearGradient id="linear-gradient-48" x1="252.95" y1="79.73" x2="252.95" y2="102.96" xlink:href="#linear-gradient-10"/><linearGradient id="linear-gradient-49" x1="298.09" y1="86.11" x2="298.09" y2="97.4" xlink:href="#linear-gradient-10"/><linearGradient id="linear-gradient-50" x1="297.6" y1="231.18" x2="297.6" y2="308.43" xlink:href="#linear-gradient-19"/><linearGradient id="linear-gradient-51" x1="268.83" y1="262.32" x2="268.83" y2="285.1" xlink:href="#linear-gradient-19"/><linearGradient id="linear-gradient-52" x1="308.33" y1="253.72" x2="309.28" y2="258.69" gradientTransform="matrix(1, 0, 0, -1, -65.3, 341.03)" gradientUnits="userSpaceOnUse"><stop offset="0" stop-color="#e1616a"/><stop offset="1" stop-color="#ff8883"/></linearGradient><linearGradient id="linear-gradient-53" x1="299.73" y1="257.53" x2="299.73" y2="307.26" xlink:href="#linear-gradient-20"/><linearGradient id="linear-gradient-54" x1="297.27" y1="277.9" x2="297.27" y2="287.75" gradientTransform="matrix(1, 0, 0, -1, -65.3, 341.03)" gradientUnits="userSpaceOnUse"><stop offset="0" stop-color="#cf6074"/><stop offset="1" stop-color="#f37270"/></linearGradient><linearGradient id="linear-gradient-55" x1="316.94" y1="274.77" x2="316.94" y2="283.34" gradientTransform="matrix(1, 0, 0, -1, -65.3, 341.03)" gradientUnits="userSpaceOnUse"><stop offset="0" stop-color="#cf6074"/><stop offset="1" stop-color="#ff817f"/></linearGradient><linearGradient id="linear-gradient-56" x1="317.77" y1="269.78" x2="317.77" y2="289.07" xlink:href="#linear-gradient-20"/><linearGradient id="linear-gradient-57" x1="298.62" y1="230.23" x2="298.62" y2="323.87" gradientTransform="matrix(1, 0, 0, -1, -65.3, 341.03)" gradientUnits="userSpaceOnUse"><stop offset="0" stop-color="#2e33a0"/><stop offset="1" stop-color="#0665a5"/></linearGradient><linearGradient id="linear-gradient-58" x1="323.22" y1="289.17" x2="323.22" y2="310.77" gradientTransform="matrix(1, 0, 0, -1, -65.3, 341.03)" gradientUnits="userSpaceOnUse"><stop offset="0" stop-color="#ffeadb"/><stop offset="0.99" stop-color="#8860c7"/></linearGradient><linearGradient id="linear-gradient-59" x1="293.79" y1="230.3" x2="293.79" y2="323.84" gradientTransform="matrix(1, 0, 0, -1, -65.3, 341.03)" gradientUnits="userSpaceOnUse"><stop offset="0" stop-color="#ccc2db"/><stop offset="0.99" stop-color="#8860c7"/></linearGradient><linearGradient id="linear-gradient-60" x1="300.07" y1="230.23" x2="300.07" y2="234.25" gradientTransform="matrix(1, 0, 0, -1, -65.3, 341.03)" gradientUnits="userSpaceOnUse"><stop offset="0" stop-color="#776d7e"/><stop offset="1" stop-color="#9d68c2"/></linearGradient><linearGradient id="linear-gradient-61" x1="311.86" y1="317.12" x2="311.86" y2="320.11" gradientTransform="matrix(1, 0, 0, -1, -65.3, 341.03)" gradientUnits="userSpaceOnUse"><stop offset="0" stop-color="#1f77d1"/><stop offset="1" stop-color="#0686c9"/></linearGradient><linearGradient id="linear-gradient-62" x1="292.84" y1="307.28" x2="292.84" y2="316.11" xlink:href="#linear-gradient-61"/><linearGradient id="linear-gradient-63" x1="324.86" y1="302.8" x2="324.86" y2="310.77" xlink:href="#linear-gradient-61"/><linearGradient id="linear-gradient-64" x1="272.13" y1="267.73" x2="261.93" y2="280.22" gradientTransform="matrix(1, 0, 0, -1, -65.3, 341.03)" gradientUnits="userSpaceOnUse"><stop offset="0" stop-color="#ffeadb"/><stop offset="0.99" stop-color="#b060f4"/></linearGradient><linearGradient id="linear-gradient-65" x1="273.19" y1="269.33" x2="268.17" y2="275.47" xlink:href="#linear-gradient-64"/><linearGradient id="linear-gradient-66" x1="292.24" y1="306.48" x2="309.51" y2="306.48" xlink:href="#linear-gradient-61"/><linearGradient id="linear-gradient-67" x1="316.6" y1="254.88" x2="321.83" y2="254.88" xlink:href="#linear-gradient-61"/><linearGradient id="linear-gradient-68" x1="310.13" y1="258.74" x2="315.78" y2="258.74" xlink:href="#linear-gradient-61"/><linearGradient id="linear-gradient-69" x1="351.8" y1="245.05" x2="528.85" y2="245.05" gradientTransform="matrix(1, 0, 0, -1, -65.3, 341.03)" gradientUnits="userSpaceOnUse"><stop offset="0" stop-color="#9d68c2"/><stop offset="1" stop-color="#aec2ff"/></linearGradient><linearGradient id="linear-gradient-70" x1="322.52" y1="215.13" x2="322.52" y2="268.54" gradientTransform="matrix(1, 0, 0, -1, 0, 377.99)" gradientUnits="userSpaceOnUse"><stop offset="0" stop-color="#ccedff"/><stop offset="1" stop-color="#9d68c2"/></linearGradient><linearGradient id="linear-gradient-71" x1="413.57" y1="241.17" x2="413.57" y2="264.69" xlink:href="#linear-gradient-70"/><linearGradient id="linear-gradient-72" x1="441.33" y1="241.17" x2="441.33" y2="264.69" xlink:href="#linear-gradient-70"/><linearGradient id="linear-gradient-73" x1="385.36" y1="241.17" x2="385.36" y2="264.69" xlink:href="#linear-gradient-70"/><linearGradient id="linear-gradient-74" x1="132.37" y1="298.96" x2="132.37" y2="323.59" gradientTransform="matrix(1, 0, 0, -1, 0, 377.99)" gradientUnits="userSpaceOnUse"><stop offset="0" stop-color="#d93de3"/><stop offset="1" stop-color="#ff6dba"/></linearGradient><linearGradient id="linear-gradient-75" x1="147.42" y1="298.96" x2="147.42" y2="323.59" gradientTransform="matrix(1, 0, 0, -1, 0, 377.99)" gradientUnits="userSpaceOnUse"><stop offset="0" stop-color="#a242ea"/><stop offset="1" stop-color="#fe117e"/></linearGradient><linearGradient id="linear-gradient-76" x1="193.4" y1="2.62" x2="206.71" y2="108.63" gradientTransform="matrix(1, 0, 0, -1, -65.3, 341.03)" gradientUnits="userSpaceOnUse"><stop offset="0" stop-color="#067eff"/><stop offset="1" stop-color="#3e37a0"/></linearGradient><linearGradient id="linear-gradient-77" x1="504.25" y1="264.68" x2="504.25" y2="273.62" gradientTransform="matrix(1, 0, 0, -1, -65.3, 341.03)" gradientUnits="userSpaceOnUse"><stop offset="0" stop-color="#459fff"/><stop offset="1" stop-color="#a96dff"/></linearGradient><linearGradient id="linear-gradient-78" x1="84.25" y1="159.95" x2="84.25" y2="171.07" xlink:href="#linear-gradient-77"/><linearGradient id="linear-gradient-79" x1="452.08" y1="301.64" x2="452.08" y2="310.58" gradientTransform="matrix(1, 0, 0, -1, 0, 377.99)" gradientUnits="userSpaceOnUse"><stop offset="0" stop-color="#b31a8f"/><stop offset="1" stop-color="#fe117e"/></linearGradient><linearGradient id="linear-gradient-80" x1="163.91" y1="272.23" x2="163.91" y2="278.55" xlink:href="#linear-gradient-79"/><linearGradient id="linear-gradient-81" x1="375.56" y1="132.79" x2="375.56" y2="139.11" gradientTransform="matrix(1, 0, 0, -1, 0, 377.99)" xlink:href="#linear-gradient-44"/><linearGradient id="linear-gradient-82" x1="47.04" y1="101.62" x2="47.04" y2="107.27" gradientTransform="matrix(1, 0, 0, -1, 0, 377.99)" xlink:href="#linear-gradient-44"/><linearGradient id="linear-gradient-83" x1="136.04" y1="95.22" x2="136.04" y2="141.84" gradientTransform="matrix(1, 0, 0, -1, -65.3, 341.03)" gradientUnits="userSpaceOnUse"><stop offset="0" stop-color="#d906e3"/><stop offset="1" stop-color="#ff6df9"/></linearGradient><linearGradient id="linear-gradient-84" x1="458.23" y1="29.17" x2="458.23" y2="87.54" xlink:href="#linear-gradient-83"/><linearGradient id="linear-gradient-85" x1="481.17" y1="195.18" x2="476.2" y2="237.87" gradientTransform="matrix(0.97, 0.26, 0.26, -0.97, -200.43, 344.36)" gradientUnits="userSpaceOnUse"><stop offset="0" stop-color="#1852a0"/><stop offset="1" stop-color="#067ed3"/></linearGradient><linearGradient id="linear-gradient-86" x1="476.3" y1="195.23" x2="476.3" y2="238.98" xlink:href="#linear-gradient-85"/><linearGradient id="linear-gradient-87" x1="462.94" y1="294.47" x2="459.72" y2="322.08" gradientTransform="matrix(0.94, 0.33, 0.52, -1.49, -281.47, 563.72)" gradientUnits="userSpaceOnUse"><stop offset="0" stop-color="#188dc1"/><stop offset="1" stop-color="#06bfe7"/></linearGradient><linearGradient id="linear-gradient-88" x1="347.05" y1="326.86" x2="358.39" y2="368.94" gradientTransform="matrix(1, 0, 0, -1, 0, 377.99)" xlink:href="#linear-gradient-87"/><linearGradient id="linear-gradient-89" x1="327.57" y1="331.71" x2="336.02" y2="363.09" gradientTransform="matrix(1, 0, 0, -1, 0, 377.99)" xlink:href="#linear-gradient-85"/><linearGradient id="linear-gradient-90" x1="-492.56" y1="217.42" x2="-484.83" y2="246.11" gradientTransform="translate(-473.12 341.03) rotate(180)" xlink:href="#linear-gradient-87"/><linearGradient id="linear-gradient-91" x1="-505.83" y1="220.73" x2="-500.07" y2="242.13" gradientTransform="translate(-473.12 341.03) rotate(180)" xlink:href="#linear-gradient-85"/></defs><g id="Layer_2" data-name="Layer 2"><g id="Layer_1-2" data-name="Layer 1"><path class="cls-1" d="M82.91,159.14q0-.37.36-.36l6.7.2a4.86,4.86,0,0,1,1.69.31,3,3,0,0,1,1.11.74,2.89,2.89,0,0,1,.59,1.14,5.21,5.21,0,0,1,.15,1.47l-.05,1.85a5.13,5.13,0,0,1-.24,1.46,2.94,2.94,0,0,1-.66,1.1,3.05,3.05,0,0,1-1.15.68,5.18,5.18,0,0,1-1.71.2l-3.61-.11-.75-2.12h-.09l-.07,2.09-2.53-.08Zm2.34,6.33,4.29.13a1.38,1.38,0,0,0,1-.29,1.62,1.62,0,0,0,.34-1.12l.05-1.5a1.68,1.68,0,0,0-.27-1.15,1.51,1.51,0,0,0-1-.33l-4.1-.12a.17.17,0,0,0-.14,0,.24.24,0,0,0,0,.12Z"/><path class="cls-1" d="M97.15,163h-.09L97,165.65a.16.16,0,0,0,.12.18h0l7.56.21-.07,2.32L94.7,168a.33.33,0,0,1-.35-.31v-.07l.25-8.21a.33.33,0,0,1,.3-.36H95l9.61.3c.24,0,.36.13.35.38l-.07,2.32-2.37.8h-.1v-1.2c0-.09,0-.13-.12-.13l-5.07-.16a.17.17,0,0,0-.14,0,.24.24,0,0,0,0,.12v1.12l4.17.12v1.82l-3.5-.1Z"/><path class="cls-1" d="M113.91,162.81h-.1v-1c0-.1,0-.15-.14-.15l-4.72-.14a.43.43,0,0,0-.36.1.51.51,0,0,0-.11.31v.22a.45.45,0,0,0,.07.34.66.66,0,0,0,.33.12l5.53.94a3.8,3.8,0,0,1,.89.26,1.87,1.87,0,0,1,.59.42,1.38,1.38,0,0,1,.31.63,3.25,3.25,0,0,1,.08.88v.71a3.08,3.08,0,0,1-.16,1,1.75,1.75,0,0,1-.46.7,2,2,0,0,1-.83.41,4.7,4.7,0,0,1-1.24.11l-8-.24.07-2.32,7.13.21c.22,0,.36,0,.43-.1a.66.66,0,0,0,.12-.41v-.24a.44.44,0,0,0-.07-.33.48.48,0,0,0-.3-.13l-5.34-.84a4.18,4.18,0,0,1-.92-.25,1.64,1.64,0,0,1-.62-.41,1.42,1.42,0,0,1-.34-.61,2.7,2.7,0,0,1-.08-.85v-.63a2.07,2.07,0,0,1,.57-1.49,2.34,2.34,0,0,1,1.73-.48l8,.24a.35.35,0,0,1,.37.32.14.14,0,0,1,0,.09l-.06,1.84Z"/><path class="cls-1" d="M117.27,168.76l.27-8.94,2.53.08-.27,8.94Z"/><path class="cls-1" d="M129.19,165.29a2.94,2.94,0,0,0,0-.42v-.48l2.5.07-.13,4.39c0,.23-.11.34-.32.34l-6.73-.21a5.1,5.1,0,0,1-1.69-.3,2.71,2.71,0,0,1-1.7-1.89,5.21,5.21,0,0,1-.15-1.47l.06-1.84a4.57,4.57,0,0,1,.24-1.47,2.61,2.61,0,0,1,.66-1.09,2.75,2.75,0,0,1,1.15-.68,4.9,4.9,0,0,1,1.7-.2l6.7.2c.24,0,.35.13.34.38l0,1.93-2.38.79h-.1v-.86c0-.08,0-.12-.11-.12l-4.27-.13a2.15,2.15,0,0,0-.62,0,.85.85,0,0,0-.42.22,1,1,0,0,0-.25.43,2.59,2.59,0,0,0-.09.68l0,1.58a1.59,1.59,0,0,0,.27,1.14,1.41,1.41,0,0,0,1,.35l4.24.12c.09,0,.14,0,.14-.14Z"/><path class="cls-1" d="M137,160.41a.58.58,0,0,1,.61.37l3.19,6.53a.28.28,0,0,0,.23.16h.14a.17.17,0,0,0,.2-.14v-.05l.2-6.73,2.3.07-.26,8.59a.3.3,0,0,1-.35.34l-3.64-.11a.73.73,0,0,1-.38-.08.68.68,0,0,1-.24-.29l-3.31-6.52a.26.26,0,0,0-.23-.16h-.13a.18.18,0,0,0-.2.19l-.2,6.72-2.3-.07.26-8.58a.31.31,0,0,1,.35-.35Z"/><circle class="cls-2" cx="203.76" cy="158.56" r="155.02" transform="translate(-52.44 190.52) rotate(-45)"/><path class="cls-3" d="M89.8,148.65a23.84,23.84,0,0,0-10.56-9.26l-2.35,1.09,5.3,9.61A10.35,10.35,0,0,1,79,155.81h0a10.32,10.32,0,0,1-6.47-1.18l-4-10.23-2.36,1.1a23.86,23.86,0,0,0,.34,14s1,2.31,1.17,2.52c.94,1.08,3.36,2.34,8.06,2l16.23,31a8.49,8.49,0,1,0,8.76-4.09L87.38,158.7c3.16-3.34,3.83-6,3.59-7.49C90.62,150.34,90.23,149.48,89.8,148.65ZM103.12,202l-4.29,2L95,201.25l.41-4.72,4.29-2,3.88,2.71Z"/><path class="cls-4" d="M91,151.17a23.79,23.79,0,0,0-10.55-9.27L78.07,143l5.29,9.6a10.23,10.23,0,0,1-3.24,5.72h0a10.33,10.33,0,0,1-6.47-1.19l-4-10.22L67.3,148a23.87,23.87,0,0,0,.33,14s3.67,4.91,9.23,4.56l16.21,30.92a8.47,8.47,0,1,0,11.58-3.08,8.6,8.6,0,0,0-2.82-1L88.52,161.15C92.39,157.13,91,151.17,91,151.17Zm13.33,53.31-4.29,2-3.88-2.71.41-4.72,4.29-2,3.88,2.72Z"/><rect class="cls-5" x="66.62" y="144.8" width="2.59" height="2.78" transform="translate(-55.49 42.48) rotate(-25.04)"/><rect class="cls-5" x="77.35" y="139.81" width="2.59" height="2.78" transform="translate(-52.37 46.56) rotate(-25.04)"/><rect class="cls-5" x="99.2" y="202.83" width="4.74" height="2.78" transform="translate(-76.89 62.18) rotate(-25.04)"/><path class="cls-6" d="M80.36,168.9,93.45,194a6.35,6.35,0,0,0,5.28-2.47L88.08,165.28A10.09,10.09,0,0,0,80.36,168.9ZM97.7,191.79A7.59,7.59,0,0,1,96,192.9a6.31,6.31,0,0,1-1.81.54L81.1,168.8a13.72,13.72,0,0,1,3.15-2.07,11.09,11.09,0,0,1,3.24-.95Z"/><path class="cls-5" d="M97.7,191.79l1-.21a5.65,5.65,0,0,1-5.28,2.47l.77-.61A7.23,7.23,0,0,0,97.7,191.79Z"/><path class="cls-7" d="M80.36,168.9l.76-.1a12.2,12.2,0,0,1,6.39-3l.57-.49a9.86,9.86,0,0,0-7.72,3.61Z"/><path class="cls-8" d="M76.89,166.6a28.94,28.94,0,0,0,11.66-5.42l1.7,4.12s-1.93-1.91-6.16-.18c-5,2-4.68,6-4.68,6Z"/><path class="cls-9" d="M90.25,165.3a5,5,0,0,0-2.58-.89L100.33,195l1.53-1.58Z"/><path class="cls-10" d="M90.25,165.3s-1.32,4.09,2.49,6Z"/><path class="cls-11" d="M280.93,363h-47c-4.92-27.32-16.36-62.87-16.36-62.87-2.78-1.65-8.21.38-8.21.38L192.18,363H149.24c-2.28-38.56,18.82-82.33,18.82-82.33h0a4.73,4.73,0,0,1-.56-2.39,5.72,5.72,0,0,1,1.6-1.86c1.16-1.06,2.54-2.12,2.54-2.12l80.11-.5s.81.41,1.84,1h0c1.75,1.06,4.12,2.7,4.12,3.9a5.46,5.46,0,0,1-.81,3v.05C274,314.19,280.93,363,280.93,363Z"/><ellipse class="cls-12" cx="171.57" cy="330.94" rx="46.31" ry="17.92" transform="translate(-189.47 423.73) rotate(-77.01)"/><ellipse class="cls-13" cx="254.74" cy="330.54" rx="17.92" ry="46.31" transform="translate(-79.72 80.97) rotate(-15.65)"/><path class="cls-14" d="M186.62,363l-.49-.08c5.46-32.2,19.34-59.21,19.47-59.48l.06-.07,3.54-3.09.32.38L206,303.76C205.4,305,192,331.55,186.62,363Z"/><path class="cls-15" d="M240.31,363c-5.36-31.55-19.16-58.34-19.78-59.54l-3.13-2.8.34-.38,3.21,2.91c.15.27,14.39,27.53,19.85,59.73Z"/><path class="cls-16" d="M257.7,278.76a5.46,5.46,0,0,1-.81,3v.05c-16.68,3.77-29.37,19.34-29.37,19.34C236.58,318.55,251.7,363,251.7,363H233.93c-4.92-27.32-16.36-62.87-16.36-62.87-2.78-1.65-8.21.38-8.21.38L192.18,363H181.06c4-26.18,15.73-58.14,15.73-58.14-11.55-13.45-28.73-24.19-28.73-24.19h0l-2-1.28,1.48-1.11c7.43,7.13,31.39,16.44,32.13,16.73l-30.53-18.59c1.16-1.06,2.54-2.12,2.54-2.12l80.11-.5s.81.41,1.84,1l-21.88,12Z"/><polygon class="cls-17" points="217.57 300.17 226.93 294.1 224.7 300.17 223.07 318.43 217.57 300.17"/><polygon class="cls-18" points="209.36 300.55 199.62 295.04 178.77 285.65 205.32 303.19 206.91 309.49 209.36 300.55"/><path class="cls-19" d="M236.16,112.69c.06.43.11.66.11.66q-.69,2.87-1.66,5.66a45.78,45.78,0,0,1-6.23,12.12,23.55,23.55,0,0,1-2.72,3.18c-14.59-4.58-21.78-18.85-24.54-26a.21.21,0,0,1,0-.11c-.53-1.34-.88-2.42-1.1-3.12h0c-.17-.56-.25-.87-.25-.87l.18-.37v0c.24-.5.48-1,.7-1.5a71.45,71.45,0,0,0,4-11.17c.71-2.62,1.09-4.64,1.27-5.71.09-.55.13-.85.13-.85l6.8,3.59,23.43,12.4a38.09,38.09,0,0,0-.5,5.94c0,1.25,0,2.37.09,3.32.07,1.16.19,2.08.28,2.68h0A.67.67,0,0,0,236.16,112.69Z"/><path class="cls-20" d="M229.7,135.88a20,20,0,0,1-4.84,3.54l-.12.07-.14-.08h0c-.51-.31-2.25-1.38-4.59-3.14-6.12-4.61-16.34-13.93-19.26-26.49h0a30.83,30.83,0,0,1-.7-4.59h0c0-.41-.06-.82-.07-1.24a64.3,64.3,0,0,0,5.55,9.92c4.14,6.06,10.35,12.67,17.77,12.71,6.42,0,9.71-4.35,11.38-8.4a22.92,22.92,0,0,0,1.35-4.6h0c.07-.36.12-.68.17-1h0a.88.88,0,0,1,.05-.37c.06-.45.08-.71.08-.71S238.7,126.81,229.7,135.88Z"/><path class="cls-21" d="M229.7,135.88a20,20,0,0,1-4.84,3.54h-.27c-.51-.31-2.25-1.38-4.59-3.14-6.12-4.61-16.34-13.93-19.26-26.49h0a30.83,30.83,0,0,1-.7-4.59h0c0-.41-.06-.82-.07-1.24a64.3,64.3,0,0,0,5.55,9.92s4,11.1,12.78,16.6c4.38,2.75,7.7,2.35,10.14.73a15,15,0,0,0,4.95-6.54,15.35,15.35,0,0,0,1.28-5.58v-.9a22.92,22.92,0,0,0,1.35-4.6h0c.07-.36.12-.68.17-1h0a.88.88,0,0,1,.05-.37c.06-.45.08-.71.08-.71S238.7,126.81,229.7,135.88Z"/><path class="cls-22" d="M285.82,226.57l-.16.08c-.82.1-3.37-.46-6.71-3.35h0c-2.8-2.45-6.16-6.54-9.51-13.24-6.7-13.39-8.62-22.33-8.93-23.89v-.24l-3.91,6.2c-2.65,8-7.67,41-7.58,42.37s4.45,8.34,4.36,9.19h0c-.12.86-2.08,2.75-2.64,4.81-.38,1.37,2.28,5.69,4.15,8.92h0a13.28,13.28,0,0,1,1.72,3.58c0,1.51-4.74,8.9-4.74,8.9v4l-.07.07-.22.2-.18.15c-1.8,1.42-9.43,6.07-33.27,7.35-28.25,1.51-47.07-7.58-47.07-7.58l1.42-3.89s-1.32-1.13-1.42-1.7,1-1.9,1-1.9-2.84-1.51-2.84-3.41,5.69-7.76,5.5-12.79-4.55-9.47-5.12-12.31,7.39-9.85,7.39-9.85c-6.82-21.6-8.15-50.59-8.15-50.59L167.43,176s-8.15,18.57-15.54,27.66c-.88,1.08-1.81,2.15-2.77,3.18a82,82,0,0,1-6.36,6.15c-5.12,4.46-9.77,7.39-10.95,7.16-1.9-.38-9.48-15.35-9.13-30.7.16-7.3,4.56-15.47,9.13-22,.49-.7,1-1.39,1.48-2.06a104.21,104.21,0,0,1,7.84-9.45c.58-.62.91-.95.91-.95s-1-3.35-1.75-6.26a1.6,1.6,0,0,0,0-.21v-.17c-.42-1.79-.68-3.34-.44-3.72.63-1,4.3-2.15,4.93-2.9s3.28-13.52,5.3-14.91,5.35-2.3,16.72-6.77l1.73-.68c12.75-5,25.26-11.18,25.26-11.18l4.8-5.9h2.14l-.7,1.5v0c.34,1.52.73,3,1.17,4.37a.21.21,0,0,0,0,.11c6.55,20.82,23.55,27.53,23.55,27.53,11.8-8.71,11.57-22.54,11.57-22.54v-1.9l2.21.66,1.51,3.6s2.56,4,12.7,8.44a59.61,59.61,0,0,1,5.57,2.85c9.28,5.27,19.6,13.42,20.39,15.15a6.59,6.59,0,0,1,.27.86h0c1.09,4.28,3.33,20.31,5.41,26a13.07,13.07,0,0,0,4.86,6.56h0a7.93,7.93,0,0,0,1.94,1q.24,1.32.45,2.61C296,206.66,287.7,225.27,285.82,226.57Z"/><path class="cls-23" d="M177,174.81l-8.24,2.77L167.43,176s-8.15,18.57-15.54,27.66c-.88,1.08-1.81,2.15-2.77,3.18a82,82,0,0,1-6.36,6.15L136.48,186l-3.19-20.55a104.21,104.21,0,0,1,7.84-9.45c.58-.62.91-1,.91-1s-1-3.35-1.75-6.26a1.6,1.6,0,0,0,0-.21v-.17c-.42-1.79-.68-3.34-.44-3.72.63-1,4.3-2.15,4.93-2.9s3.28-13.52,5.3-14.91c0,0-1.32,12.25,5.69,27.79l3.41,4.8,10,8S172.86,172.5,177,174.81Z"/><path class="cls-24" d="M153.15,197c-1.77,13.13-21.34,23.24-21.34,23.24-4.36,0-9.23-7.58-13.65-16.93s-4.69-36.21-4.92-37.87-2.7-5-2.85-6.4,4-4.36,4-4.36v-.14c-.43-.92-2.85-6.11-2.68-7.06s4.82-3.31,4.82-3.31l.29,5.11s10.78-2,14.43-10.39l.64-2.56,1.8,1.2v11s.37,1.71.94,1.71,4.77-2.1,5.65-1.81,1.76,6.17,2.94,6.92,4.3,2.94,4.77,4a19.22,19.22,0,0,1,.25,4.15,42.41,42.41,0,0,0,.41,6.94C149.24,173.31,154.92,183.83,153.15,197Z"/><path class="cls-25" d="M332.14,185.72c-.88,1.39-5.3,4.3-6.44,5.44s0,4.87,0,4.87a153.39,153.39,0,0,1-39.88,30.54l-.16.08C274,218.81,275,205.9,278.87,195a82.38,82.38,0,0,1,10.32-19.38h0a24.91,24.91,0,0,1,5.92-1.64,3.6,3.6,0,0,1,2.19.68c1.42.88,2.62,2.27,3.78,1.69,1.71-.86,5.53-9.89,8.12-10.14,1.81-.17,4.32,1.67,6,2.72.73.46,1.3.77,1.58.69,1-.25,4.17-4.11,4.43-4.21s1.72,1,1.72,1l-1,1.28a35,35,0,0,0,6.77,15.17l3.47-5.08S333,184.33,332.14,185.72Z"/><path class="cls-26" d="M236.21,112.3a1,1,0,0,1-.05.39,7.16,7.16,0,0,1-.19.8h0c-1.19,4.41-6,8.92-12.07,6.75-6.63-2.37-19.25-29.1-19.25-29.1l1.27-5.71,30,24.4.33,2.31Z"/><path class="cls-27" d="M136.48,107.41s-1.83-10.11-1-17.56a81.44,81.44,0,0,0-.21-15.92,4.07,4.07,0,0,0-3.14,0c-1.33.76-4.42,8.47-3,14.66s.32,21,.32,21h-2.09l-4.55-6.25-2.21-.64s-12.72,12-12.53,19.14l1.66,6.35,15.67-.54L135.59,116Z"/><path class="cls-28" d="M120.56,102.73a81,81,0,0,0,2.14,14.78,3.54,3.54,0,0,1-3.57,3l-.8-.9s-.57,3.17-3.46,3.41l-2.75-2.75.71,2.27a3.89,3.89,0,0,1-3.6,2.33s-4.36-3.41-4.64-7.87l4.31-3.64v-2.8L114,107l.1-2A12.08,12.08,0,0,1,120.56,102.73Z"/><path class="cls-29" d="M135.7,87.71a7.15,7.15,0,0,1-1.86,2.71,16.11,16.11,0,0,1-4.24,1.34l-.14,17.86h-2.09l-4.55-6.25s2.31,3.56,2.45,6.25l-1.8.88-1.56-5.35-.74,3.85.73,4.8a12.66,12.66,0,0,1,7.58-2.42l.73,1.33s-8.82,7.31-10.86,11.62c0,0,4.36-5.54,14.31-11.65l.94-2.93,1.26-7S134.62,92.63,135.7,87.71Z"/><path class="cls-30" d="M143.05,118.84c-.82,2.46-9.41,12.69-10.36,14.91a29.15,29.15,0,0,0-1.52,5.11C127,148,116.7,149.25,116.7,149.25l-.47-8.24s-5.49-3.16-6.42-4.89h0l-.11-.29a68.45,68.45,0,0,1,0-7.58l9.61-3.89c4.17-5.4,14.31-11.65,14.31-11.65l.47-2.83c-7.28-3.58-6.06-14.41-4.83-15.74a5.41,5.41,0,0,1,3.5-1.32s2.66,8.71,4.36,12.79S143.87,116.38,143.05,118.84Z"/><path class="cls-31" d="M114.09,104.91s1.07,10,4.22,14.69A23.21,23.21,0,0,1,114,107Z"/><path class="cls-31" d="M108.88,110.55s1,8,6,12.46c0,0-4.37-2.18-6-9.66Z"/><path class="cls-32" d="M134,131.63s-10.83,10.52-17.75,9.38l.47,8.24a18.28,18.28,0,0,0,15.07-13A31.58,31.58,0,0,1,134,131.63Z"/><path class="cls-33" d="M363.06,145.93s-9.95,18.19-21.6,23.78h-4l-9.19,13.93s-5.94-3.73-6.38-16a11.12,11.12,0,0,0,2.61-4.6s-3.28-2.58-4.17-4.47-1.2-7.58-1.83-9.92-6-7.2-7.2-7.83-6.63-.95-6.63-.95-.76-2,0-2.9,9.22-4.24,13.83-1.08a20.94,20.94,0,0,0,.82,3.67c.51,1.26,4.55,5.74,5.18,5.74s3.35-2.27,4.55-4A179.29,179.29,0,0,0,337.79,122a.29.29,0,0,1,0-.13,1.17,1.17,0,0,1,.06-.2v-.18c1.14-3.85,7.77-11.24,11.31-13.26a2.09,2.09,0,0,1,2.33,1.51s-2.84,8.09-5.81,12.89c-.5.81-1,1.76-1.6,2.78h0c-2.53,4.65-5.38,10.74-5.79,11.63l-.05.11,1.58.81,4.27-4.05,4.38-4.15,10,10.61-1,1.26-3.14,4,1.59.29,3.7-4.09Z"/><path class="cls-34" d="M360.7,149.8l-3.18,4.67S340.1,141,336.31,139.87s-5.18-.38-5.18-.38l-3.91,5s7.2,6.38,7.83,15c0,0-2.4-10.86-10.55-14.15.63,0,3.35-2.27,4.55-4A179.29,179.29,0,0,0,337.79,122a5,5,0,0,0,.16,3.41c.86,1.59,5.92.09,6.22,0h0l-5.8,11.63-.05.11,1.58.81,4.27-4-2.14,5,15.58,2.75-3.14,4,1.59.29Z"/><path class="cls-35" d="M348.56,129.7s3-.44,5,3.48l-.44,1.26s3,.58,5.81,5.37a16.17,16.17,0,0,1-8.78,6.69s-2.9-.82-3.41-3.28l.57-1.58L345,143.35s-2.72.82-3.92-3.23Z"/><path class="cls-36" d="M364,144.67a4.68,4.68,0,0,0-2.46-4.8l-6,6.63a3.08,3.08,0,0,0,2.78,2.59S362.39,147.7,364,144.67Z"/><path class="cls-37" d="M320.33,158.57a44.41,44.41,0,0,0,17.15,11.14l-4.4,6.66-9.17-11.65.59-1.68S320.83,160.28,320.33,158.57Z"/><path class="cls-31" d="M353.11,134.44s-2.9,4.8-5.81,7.2l-.57,1.58s5.64-3.81,7.72-8.2A3.64,3.64,0,0,0,353.11,134.44Z"/><path class="cls-38" d="M332.14,185.72c-.88,1.39-5.3,4.3-6.44,5.44s0,4.87,0,4.87a153.39,153.39,0,0,1-39.88,30.54l-.16.08c-1.52.19-8.91-1.89-16.3-16.67-6.7-13.39-8.62-22.33-8.93-23.89v-.24l1.63-2.21,2.42-27.28,1.7,5.49c6.44-7.77,12.51-19.7,12.51-19.7l.27.86h0c1.09,4.28,3.33,20.31,5.41,26a13.07,13.07,0,0,0,4.86,6.56h0c-5.93,5.41-8.87,13.19-10.32,19.38a53.55,53.55,0,0,0-1.42,10,67.31,67.31,0,0,1,6.82-17,36.27,36.27,0,0,1,7.33-8.85,60.06,60.06,0,0,1,5.72-4.58c1.42.88,2.62,2.27,3.78,1.69-7.8,11.71-7.61,34.89-.28,30.47s9-13.8,9-13.8c-1.73-11.43-1.22-24.32.17-26.77,1.69,0,6.52,3.45,6.8,3.37A39.57,39.57,0,0,0,322.7,192l4.17-6.45a40.08,40.08,0,0,1-5.62-20.19c.25-.11,1.72,1,1.72,1l-1,1.28a35,35,0,0,0,6.73,15.2l3.47-5.08S333,184.33,332.14,185.72Z"/><path class="cls-39" d="M251.7,269.85v4l-.07.07-.22.2-.18.15c-1.8,1.42-9.43,6.07-33.27,7.35-28.25,1.51-47.07-7.58-47.07-7.58l1.42-3.89s-1.32-1.13-1.42-1.7,1-1.9,1-1.9-2.84-1.51-2.84-3.41c0-1.71,4.64-6.66,5.39-11.31a6.67,6.67,0,0,0,.11-1.48c-.19-5-4.51-9.43-5.11-12.27h0c-.57-2.84,7.39-9.85,7.39-9.85-6.82-21.6-8.15-50.59-8.15-50.59l-1.25-1.6s-8.15,18.57-15.54,27.66-18.19,16.89-20.08,16.51c-4.36,0-9.23-7.58-13.65-16.93s-4.69-36.21-4.92-37.87-2.7-5-2.85-6.4c4.74,8.15,12.29,5.75,12.29,5.75-5.47.12-8.31-10.11-8.31-10.11v-.14l-2.67-7c.3.34,6.55,7.33,12.59,3s9.38-13,9.38-13v11s.37,1.71.94,1.71a134.63,134.63,0,0,1-2.74,17.29c-2.81,13.13-6.66,25.81-6.66,25.81s10.44-5.68,14.11-20.08A61.07,61.07,0,0,0,141.19,156a43.77,43.77,0,0,0-.84-7.21,1.6,1.6,0,0,0,0-.21v-.1h0l1,2.14,1.92,4.76c2.23,18.48-2.37,46.33-2.37,46.33,6.7-8.34,8.09-26.78,7.8-31.26-.13-2.14-.3-4.78-.41-6.94-.15-2.36-.25-4.15-.25-4.15l13.71,8.18-2.53-8,10,8s9,10.8,18.19,12.06,43.07.51,43.07.51-29.43,1.89-38,4.42-10.23,5.43-10.23,5.43c6.21,31.59,40.58,42.24,41.65,42.56-31.18-4.68-45.69-31.19-45.69-31.19s-.51,14.91,1.89,20.59,16.55,19.58,34.74,22.48a40.41,40.41,0,0,0,4.53.46c15.34.72,28-7.12,29.34-8l.11-.07h0c-.49.75-6.78,9.59-32.18,10.56-1.54.06-3,0-4.5,0h0c-23.54-1-35.53-16.67-35.53-16.67s-8.71,4.68-3.15,11.62l.18.22c1.64,1.89,5.25,4.2,9.52,6.58l.35.2c5.16,2.85,11.21,5.79,15.89,8.22h.07a58.38,58.38,0,0,1,6.52,3.73h0c1.32,1,1.59,1.58.3,1.73-6.57.76-31.45-4.67-32.46-3.16S175,265.2,175,265.2c22.84,11.32,71.71,5.74,73.25,5.57C207.2,281.34,173.7,268,173.7,268l1.11,3.92a146.26,146.26,0,0,0,39.69,6.82c21.48.5,34.87-5,34.87-5Z"/><path class="cls-40" d="M235,179.91s16.26.89,27,3.73l-5.53,8.4A73.77,73.77,0,0,0,235,179.91Z"/><path class="cls-41" d="M250.21,224.75s-10.15,8.47-20.13,12.38a67.53,67.53,0,0,1-19.58,4.3s5.74,1.7,19.85-.57,19-9.92,19-9.92Z"/><path class="cls-42" d="M254.76,257.36h0c-18.78,4.85-42.62-2.11-42.42-3s6.53.38,21.21-2.56c14.23-2.85,19.39-7.91,19.7-8.22-.12.86-2.08,2.75-2.64,4.81C250.23,249.81,252.89,254.13,254.76,257.36Z"/><path class="cls-43" d="M203.75,182.46c-16,1.63-20.36,6.1-20.36,6.1-4.51.57-14.64-11-14.64-11L167.43,176s-8.15,18.57-15.54,27.66c-.88,1.08-1.81,2.15-2.77,3.18l1-2.36s1.72-.82,2.22-9.85-3.79-22.48-3.82-24.31-.66-11.09-.66-11.09l13.71,8.18-2.53-8,10,8s3.91,5.88,13.78,10.78C192.16,182.88,202.6,182.51,203.75,182.46Z"/><path class="cls-44" d="M167.43,176l9.56-1.25a71.92,71.92,0,0,0,11.48,5.65l-6.39,9.43s2.54,13.44,9.82,21c0,0-19.32-10.73-22-19.75Z"/><path class="cls-45" d="M111.64,147.46l2.73,7.19s2.78,9.7,8.31,10.11,10.93-16.27,10.93-16.27v-11s-5.88,12.6-12.23,14S111.64,147.46,111.64,147.46Z"/><path class="cls-46" d="M144.7,141.77s4.93,9.85,11,12.88c0,0-7.21-17.5-5.69-27.79C150,126.86,147.34,128.51,144.7,141.77Z"/><path class="cls-47" d="M264.44,156.36l1.7,5.49,1.72,45.05a109.76,109.76,0,0,1-7.43-20.81l1.59-2.45S264.7,166.66,264.44,156.36Z"/><path class="cls-48" d="M316.79,169.62s-1,22.13,8.44,24l.47,2.42S313.53,195.58,316.79,169.62Z"/><path class="cls-49" d="M301.1,176.35s-.36.79-3.78-1.69c0,0-11.83,8.38-16.39,20.19,0,0,7.29-10.85,11.17-12s4.82,3.16,4.82,3.16S298.46,179.88,301.1,176.35Z"/><path class="cls-50" d="M110.39,159s4.55,8.39,13.08,5.76c0,0-5.11,3.44-10.23.64C113.24,165.41,110.06,160,110.39,159Z"/><path class="cls-51" d="M140.2,148.39s6.26,23.4-10.07,41a27.15,27.15,0,0,0,13-18A38.78,38.78,0,0,0,140.2,148.39Z"/><path class="cls-52" d="M252.34,129.69s-.7,10.56-5.77,18.14-15.1,12.69-15.1,12.69,12.6-4.64,18.38-11.17S252.34,129.69,252.34,129.69Z"/><path class="cls-53" d="M187.89,113.8a67,67,0,0,0,2.81,17.83c2.84,9,27.51,24.73,27.51,24.73s-25.42-10.57-30.35-20.06S187.89,113.8,187.89,113.8Z"/><path class="cls-54" d="M187.6,155.86v14.38s33.11-.27,70.24,2.19l.85-12.94A646.69,646.69,0,0,0,187.6,155.86Z"/><path class="cls-55" d="M193.7,159.14q0-.37.36-.36l6.7.2a4.86,4.86,0,0,1,1.69.31,3,3,0,0,1,1.11.74,2.89,2.89,0,0,1,.59,1.14,5.21,5.21,0,0,1,.15,1.47l-.05,1.85A5.13,5.13,0,0,1,204,166a2.65,2.65,0,0,1-1.82,1.78,5.15,5.15,0,0,1-1.7.2l-3.61-.11-.75-2.12H196l-.06,2.09-2.53-.08Zm2.34,6.33,4.29.13a1.38,1.38,0,0,0,1-.29,1.62,1.62,0,0,0,.34-1.12l.05-1.5a1.67,1.67,0,0,0-.28-1.15,1.46,1.46,0,0,0-1-.33l-4.1-.12a.17.17,0,0,0-.14,0,.18.18,0,0,0,0,.12Z"/><path class="cls-55" d="M208,163h-.08l-.08,2.68a.16.16,0,0,0,.12.18h0l7.55.23-.07,2.32-9.89-.3a.33.33,0,0,1-.35-.31v-.07l.25-8.21a.33.33,0,0,1,.3-.36h.07l9.6.3a.32.32,0,0,1,.36.27.21.21,0,0,1,0,.11l-.07,2.32-2.37.8h-.1v-1.2c0-.09,0-.13-.12-.13l-5.08-.16a.15.15,0,0,0-.13,0,.24.24,0,0,0,0,.12v1.12l4.17.12-.05,1.82-3.5-.1Z"/><path class="cls-55" d="M224.7,162.81h-.1v-1c0-.1,0-.15-.14-.15l-4.72-.14a.43.43,0,0,0-.36.1.51.51,0,0,0-.11.31v.22a.45.45,0,0,0,.07.34.66.66,0,0,0,.33.12l5.53.94a3.8,3.8,0,0,1,.89.26,1.87,1.87,0,0,1,.59.42,1.49,1.49,0,0,1,.31.63,2.89,2.89,0,0,1,.07.88v.71a3.08,3.08,0,0,1-.16,1,1.77,1.77,0,0,1-.47.7,2,2,0,0,1-.82.41,4.7,4.7,0,0,1-1.24.11l-8-.24.07-2.32,7.14.21a.55.55,0,0,0,.43-.1.66.66,0,0,0,.12-.41v-.24a.36.36,0,0,0-.38-.46l-5.33-.84a4.18,4.18,0,0,1-.92-.25,1.64,1.64,0,0,1-.62-.41,1.42,1.42,0,0,1-.34-.61,3,3,0,0,1-.09-.85v-.63A2.1,2.1,0,0,1,217,160a2.41,2.41,0,0,1,1.74-.48l8,.24a.35.35,0,0,1,.37.32.14.14,0,0,1,0,.09l-.06,1.84Z"/><path class="cls-55" d="M228.1,168.76l.27-8.94,2.53.08-.27,8.94Z"/><path class="cls-55" d="M240,165.29v-.42a2.29,2.29,0,0,0,0-.37v-.11l2.5.07-.13,4.39c0,.23-.11.34-.32.34l-6.73-.21a5.1,5.1,0,0,1-1.69-.3,2.66,2.66,0,0,1-1.7-1.89,5.21,5.21,0,0,1-.15-1.47l.06-1.84a4.57,4.57,0,0,1,.24-1.47,2.61,2.61,0,0,1,.66-1.09,2.75,2.75,0,0,1,1.15-.68,4.9,4.9,0,0,1,1.7-.2l6.7.2a.32.32,0,0,1,.34.29.14.14,0,0,1,0,.09l-.06,1.93-2.37.79h-.1v-.86c0-.08,0-.12-.11-.12l-4.27-.13a2.15,2.15,0,0,0-.62,0,.85.85,0,0,0-.42.22,1,1,0,0,0-.25.43,3.1,3.1,0,0,0-.1.68v1.58a1.59,1.59,0,0,0,.27,1.14,1.41,1.41,0,0,0,1,.35l4.24.12c.09,0,.14,0,.14-.14Z"/><path class="cls-55" d="M247.84,160.41a.58.58,0,0,1,.61.37l3.19,6.53a.28.28,0,0,0,.23.16H252a.17.17,0,0,0,.2-.14v-.05l.2-6.73,2.3.07-.26,8.59a.3.3,0,0,1-.35.34l-3.64-.11a.73.73,0,0,1-.38-.08.68.68,0,0,1-.24-.29l-3.32-6.52a.22.22,0,0,0-.22-.16h-.13a.17.17,0,0,0-.2.14v.05l-.2,6.72-2.3-.07.26-8.58c0-.24.12-.36.35-.35Z"/><path class="cls-56" d="M240,115.71c-.78,9.3-3.61,15.78-6.63,20.15-4.16,6-8.66,8-8.66,8a51.92,51.92,0,0,1-11.76-7.09,60,60,0,0,1-19.24-28.5,66.08,66.08,0,0,0,21.56,28.31,43.33,43.33,0,0,0,9.41,5.52V137.5a31.64,31.64,0,0,1-3.1-1.36c-11.8-5.95-18-18.35-20.9-26.37h0a57.45,57.45,0,0,1-2.18-7.39h2.14l-.7,1.5v.05c.34,1.52.73,3,1.17,4.37a.21.21,0,0,0,0,.11c6.6,20.77,23.6,27.48,23.6,27.48,11.8-8.71,11.57-22.54,11.57-22.54v-1.9l2.21.66Z"/><path class="cls-57" d="M310,166.25s-3.21,10.47-.17,26.77c0,0,1.51-20.65,2.65-22.45s4.32-.95,4.32-.95A72.8,72.8,0,0,0,310,166.25Z"/><path class="cls-58" d="M278.87,223.22c-2.8-2.45-6.16-6.54-9.51-13.24-6.7-13.39-8.62-22.33-8.93-23.89l1.59-2.45,2.13-20.6,2-1.19a84.14,84.14,0,0,0,12.55-19.7,6.59,6.59,0,0,1,.27.86h0c1.09,4.28,3.33,20.31,5.41,26a13.07,13.07,0,0,0,4.86,6.56s-12.31,18.26-12.91,31.29C275.75,218.76,278.39,222.62,278.87,223.22Z"/><path class="cls-59" d="M205.78,261.3s-22.19-3.64-31.25-9.48h0a6.67,6.67,0,0,0,.11-1.48c-.19-5-4.51-9.43-5.11-12.27.1.27.75,1.77,3.9,4.47a66.9,66.9,0,0,0,9.52,6.58l.35.2c6.4,3.78,11.91,6.34,15.89,8.22h.07c3.58,1.68,5.9,2.79,6.52,3.73Z"/><path class="cls-60" d="M253.25,243.63c-.12.86-2.08,2.75-2.64,4.81,0,0-8.14,8.62-38.27,6,.2-.85,6.53.38,21.21-2.56C247.78,249,252.94,243.94,253.25,243.63Z"/><path class="cls-61" d="M258.26,127,239,133.24l-5.64,2.62H224.7l-3.1.25-1.64.12-4.67.37-2.35.19-23.1-8.36L185.7,127l-19-6.88,1.73-.68c12.75-5,25.26-11.18,25.26-11.18l4.8-5.9h2.14a71.45,71.45,0,0,0,4-11.17l1.27-5.71c.09-.55.13-.85.13-.85l6.8,3.59,22.93,18.34c0,1.25,0,2.37.09,3.32l.33,2.31c.06-.45.08-.71.08-.71l2.21.66,1.51,3.6s2.56,4,12.7,8.44A61.35,61.35,0,0,1,258.26,127Z"/><path class="cls-62" d="M243.59,109.43a31.33,31.33,0,0,1-18.89-2.78c-9.91-4.8-18.24-19-18.75-22.48s3.79-12.76,3.79-20-3.53-19.58,2.4-26.28,33.22-7.7,42.07.89c0,0,2.74,6.88,2.74,10.77a28.5,28.5,0,0,1-.42,3.91c-.08.59-.19,1.22-.29,1.87-.79,4.71-1.88,10.46-1.37,13a12.59,12.59,0,0,0,.79,2.46h0c1.09,2.52,2.71,4.53,3,6.71C259,80.38,255.22,100.59,243.59,109.43Z"/><path class="cls-63" d="M209.7,62.18s-2.45-6.15-8.61-6.25c0,0-3.6,1.43-4.17,4.17,0,0,1.33,10,2.84,14.59s7.08,4,7.08,4A23.59,23.59,0,0,0,209.7,62.18Z"/><path class="cls-64" d="M233.33,82.43a5.62,5.62,0,0,1,2.94.5c.88.67,4.1,3.79,8.18,4.65s6.8-2.62,7.67-2.8,1.82,1,1.82,1a3.43,3.43,0,0,0-2.49-2.06s-.86,3.27-6.77,2.15-8.41-3.74-8.41-3.74l-.3-.54A16.34,16.34,0,0,0,233.33,82.43Z"/><path class="cls-65" d="M224.62,51.84l.08-.63s5.89-10.34,17.54-10.62,14.29,7,14.29,7l2.17-3.26-4.92-10-34.24-.56-8.34,6.72-1,16.47,3.71,21.74,9,4.8,2.54-2.25c-.94-7.28-6.35-13.93-6.35-13.93L223,64.58s10.13,4.9,16,3.43c0,0,4.41-12.85,4.15-22.38C243.15,45.63,228.14,47.85,224.62,51.84Z"/><path class="cls-66" d="M224.1,52.6s.57-3.72,6.85-5.21c7-1.66,12.69-3.06,12.69-3.06s-1.24,4.08-3.57,5.61c0,0-7.41-.27-11.16.59S224.1,52.6,224.1,52.6Z"/><path class="cls-66" d="M256.53,47.61s-3.56,2.74-6,9.27c0,0,2.32-3,4.45-3a1.23,1.23,0,0,1,1.26,1.18,1.36,1.36,0,0,1,0,.29A13.69,13.69,0,0,0,256.53,47.61Z"/><path class="cls-67" d="M226.45,63.13s.38-7.86,8.05-9.85a16,16,0,0,1,3,7.58S233.46,60.1,226.45,63.13Z"/><path class="cls-68" d="M248.43,66.26s.62-6.26,4.21-8.57c0,0,2.45,1.83,2.2,7.07C254.84,64.76,252.7,64,248.43,66.26Z"/><path class="cls-69" d="M226.45,63.13s2.49,3.07,9.47,3.67a11,11,0,0,0,1.2-6S230.7,60.2,226.45,63.13Z"/><path class="cls-69" d="M248.43,66.26v.92s1.07,2.24,4.92,2.62a10.82,10.82,0,0,0,1.35-5.07S252.25,64.11,248.43,66.26Z"/><path class="cls-70" d="M233.91,60.65a8.6,8.6,0,0,0-1.61,5.55,27.61,27.61,0,0,0,3.62.6,9.39,9.39,0,0,0,1.2-6A9.61,9.61,0,0,0,233.91,60.65Z"/><path class="cls-70" d="M252.08,64.83s-1,1.08-1.19,4.37a7.46,7.46,0,0,0,2.46.6,9.05,9.05,0,0,0,1.35-5.07A4.42,4.42,0,0,0,252.08,64.83Z"/><path class="cls-66" d="M233.33,66.43s-.63-4.25,1.8-5.87l2,.25a8.6,8.6,0,0,1-1.2,6S233.94,66.57,233.33,66.43Z"/><path class="cls-66" d="M253,64.65a18,18,0,0,0-1.32,4.83,5.56,5.56,0,0,0,1.71.32,8.28,8.28,0,0,0,1.35-5.07A4.09,4.09,0,0,0,253,64.65Z"/><path class="cls-71" d="M226.45,63.13S231.09,60.43,239,62l-1.47-1.11A13.22,13.22,0,0,0,226.45,63.13Z"/><path class="cls-71" d="M248.43,66.26a12.45,12.45,0,0,1,8.06-.93L254.7,64S251.79,63.56,248.43,66.26Z"/><path class="cls-10" d="M231.47,63.13a2.75,2.75,0,0,1,2.4.88A2.19,2.19,0,0,1,231.47,63.13Z"/><path class="cls-10" d="M250.13,66.8s2-.39,2.66.52C252.79,67.32,251.7,68,250.13,66.8Z"/><path class="cls-72" d="M226.91,63.59A18.22,18.22,0,0,0,236.3,68l.15-2.1-.53.89S230.37,66.47,226.91,63.59Z"/><path class="cls-72" d="M248.43,67.18s.64,2.3,5.34,3.34l-.15-1.12-.27.4S250,69.37,248.43,67.18Z"/><path class="cls-73" d="M239,76.4a16.76,16.76,0,0,1,5,0c3.22.38,6.85,1.26,8.82,0,0,0-2.62,2.63-4.9,3s-5.75-1.6-5.75-1.6h-1.51A4.18,4.18,0,0,1,239,76.4Z"/><path class="cls-74" d="M240.85,77.85a2.47,2.47,0,0,1,1.45-.38c.66.13,1.34,1.09,1.34,1.09A6.63,6.63,0,0,0,240.85,77.85Z"/><path class="cls-75" d="M252.79,76.4c.85-.82-3.51-8.59-5.6-8.87s-4,8.7-4,8.7,2.9.41,5.71.78S252.79,76.4,252.79,76.4Z"/><path class="cls-76" d="M255.91,52c-1.18-.15-5.35,4.92-5.35,4.92s-2.65,8.21-2.13,10.64,7,3.73,7,3.73l.27-.43h0a12.59,12.59,0,0,1-.79-2.46c-.51-2.52.58-8.27,1.37-13a9.84,9.84,0,0,0,.29-1.87C256.56,52.74,256.45,52,255.91,52Z"/><path class="cls-77" d="M255.7,85.3c-1.33-2.78-.51-4.23-12.06-5.74-16.35-2.15-17.75,2.84-20.53,2.08a2.19,2.19,0,0,1-.33-.12c-3-1.17-10.1-8.14-10.28-17.53-.19-9.76,6.35-16.68,6.35-16.68-2.37-2-3.32-7.76-.76-10.23s6.92-1.89,17.62-.76,10.71.48,10.71.48c3.4.87,5.35,4.06,5.9,5.08.11.2.16.32.16.32L253.81,41a17.44,17.44,0,0,1,2.94,10.89s5.87-11.94,5.2-13.63a45.09,45.09,0,0,0-4.82-8h0s-.95-9.09-3.79-9.09-15,2.74-15,2.74a17.33,17.33,0,0,0,1.14-6.72l0,.05c-4,3.55-7.83,3.94-13.31,6.48A13.92,13.92,0,0,0,221,27.41l-.37.44-.39.47A16.39,16.39,0,0,1,219,29.79l-.06.06h0a16,16,0,0,1-1.59,1.49c-3.6,2.93-11.52,4.89-12.47,8s1.2,7.32,2.34,11.68a23.65,23.65,0,0,1,.61,8.21,16.12,16.12,0,0,1,2.52,12c-1.11,6.37-3.54,7.41-3.54,7.41a10.9,10.9,0,0,0-.9,6.79c3.5,13.92,18,22.21,18,22.21,12.88,4.8,21.35,2.71,21.35,2.71h0C254.62,104.24,257.83,84,258,83.08,257.81,83.34,256.07,86,255.7,85.3Zm-5.78,12.89c-2.27-.38-2.75-6.13-3.5-6.89s-4.87-.44-4.87-.44-3.79,4.3-5.3,4.42-9.6-3.16-7.85-8.08,7.85-5.56,7.85-5.56a14.79,14.79,0,0,0,7.89,3c4.74.31,6.45-.56,7-.81s3.62,1.13,3.54,5.43c0,2.95-2.46,9.31-4.74,8.93Z"/><path class="cls-78" d="M249.35,69.25s4.08,5.07,3.69,7c-.42,2.09-5.15,3.2-5.15,3.2s3.79-1.31,4.57-3.2A25.56,25.56,0,0,0,249.35,69.25Z"/><path class="cls-79" d="M256.77,51.86A17.44,17.44,0,0,0,253.83,41a29.06,29.06,0,0,0,3.31-10.71h0a36.7,36.7,0,0,1,1.54,7.1l3.28.86C262.64,39.92,256.77,51.86,256.77,51.86Z"/><path class="cls-80" d="M252.34,41.88c-.55-1-2.5-4.21-5.9-5.08,0,0,0,.66-10.71-.48s-15-1.7-17.62.72-1.61,8.24.76,10.23c0,0-6.54,6.92-6.35,16.68.18,9.39,7.27,16.36,10.28,17.53l-.14,1s.53,21.5,5.76,23.21,16.06.82,17.07,1.83-.14,2.61-.24,2.76h0s-8.47,2.09-21.35-2.71c0,0-14.48-8.29-18-22.21a10.9,10.9,0,0,1,.9-6.79s2.43-1,3.54-7.41a16.12,16.12,0,0,0-2.52-12,23.65,23.65,0,0,0-.61-8.21c-1.14-4.36-3.29-8.59-2.34-11.68a13.63,13.63,0,0,0,10-2.21s1.06-1.47,5.75-2.23S244.16,36,244.16,36a16.25,16.25,0,0,0-5.87-2.61c-3.76-1-16.6.16-18,.27,1.47-.26,16-2.76,17.69-2.26S246,34.78,246,34.78C245.54,32,239.9,25,239.9,25a88.54,88.54,0,0,0-13.2,1.24,17,17,0,0,0-7.7,3.54l1.24-1.47.39-.47.37-.44,1.82-.31L232,23.44c3.07-1.64,7-5.7,7.48-6.2l.05,0a17.33,17.33,0,0,1-1.14,6.72c7.72-.95,10.33-.47,10.33-.47C252.22,28.41,252.34,41.88,252.34,41.88Z"/><path class="cls-81" d="M223.89,107.66a48.23,48.23,0,0,1,11.87-.84c7.15.29,11.25.32,9.48,3.55C245.24,110.37,236.27,112.4,223.89,107.66Z"/><path class="cls-82" d="M248.7,23.44S253,21.75,254.76,22a3.37,3.37,0,0,0-1.39-1.09c-.71-.19-15,3-15,3S247.29,22.87,248.7,23.44Z"/><path class="cls-83" d="M239.9,25s-.34,4.73-1.85,6.44l-17.69,2.26-5.19-.92a12.83,12.83,0,0,0,4.21-3.43C221.59,26.82,233.13,24.29,239.9,25Z"/><path class="cls-84" d="M257.14,30.26a39.41,39.41,0,0,1,1.56,7.11l3.28.86A23.64,23.64,0,0,0,257.14,30.26Z"/><path class="cls-85" d="M208.94,70.52s-1.25-6-4.3-8.92a7.15,7.15,0,0,0-6.52-2s.95,11.07,1.94,13.77,2.51,3.41,2.51,3.41a8.51,8.51,0,0,1-2.41-5.53c-.29-3.66-.38-8.83.42-9.44s4.06,1.78,4.06,1.78A10.82,10.82,0,0,0,203,68.11c-.62,3.27,1.66,5.64,2.51,5.59s0-3.78.1-4.85S207.64,68,208.94,70.52Z"/><path class="cls-86" d="M205.89,63.11a7.47,7.47,0,0,0-3,6.67c.36,4.49,2.93,4.29,2.94,3.35s-.49-3.37-.23-4.74,2.47-.75,2.47-.75A32.54,32.54,0,0,0,205.89,63.11Z"/><path class="cls-87" d="M258,83.09s-4.14,18.87-12.73,27.28C245.24,110.37,255,106.52,258,83.09Z"/><path class="cls-87" d="M253.38,20.93s2.18,1.7,2.59,7.59S253.83,41,253.83,41a23.73,23.73,0,0,0,3.6-10.27C257.7,25.33,255.11,21.61,253.38,20.93Z"/><path class="cls-88" d="M226.94,33.28a51,51,0,0,0,10.59,2.21l6.68.6s-2.23-2.16-7-2.81A47.65,47.65,0,0,0,226.94,33.28Z"/><path class="cls-89" d="M251.34,83.5a3.8,3.8,0,0,1,3.37,3,25.66,25.66,0,0,1,1,4.5l.85-3.32s-1.11-4.21-2.27-5.15c-.84-.69-2.28-1.38-3-1.21Z"/><path class="cls-90" d="M244.83,80.47l.41,3.6a12.67,12.67,0,0,0,4.89-.57l.35-2.18A27.65,27.65,0,0,0,244.83,80.47Z"/><path class="cls-87" d="M258.26,127s17.23,12.58,19.46,16.91,3.14,17.9,6.17,23.78c0,0-2.07-9.61-3.52-17.15s-1.1-7.64-1.91-9.48S264.79,130.28,258.26,127Z"/><path class="cls-87" d="M255.17,197s-8.3,35.55-7.92,38,5.75,7.3,6,8.64c0,0-4.11,5.5-3.92,6.72s7.2,8.92,7,11.31c-.05.69-4.6,8.19-4.6,8.19s5.14-7.37,5.39-8.55-6.29-11-6.49-12c-.49-2.59,3.27-4.49,3.4-6.2s-5.1-5.87-5.14-8.65S255.17,197,255.17,197Z"/><path class="cls-87" d="M256.86,281.77S274.81,322.4,280.93,363C280.93,363,279.91,323.38,256.86,281.77Z"/><path class="cls-75" d="M143.05,118.84s-4.64-1-6.57-5-.67-9.92-.67-9.92a102.76,102.76,0,0,0,5.45,9.36C143.07,115.62,143.56,118.33,143.05,118.84Z"/><path class="cls-91" d="M286.36,97.65l3.22,91.8a6.76,6.76,0,0,0,6.76,6.53H454.47a6.77,6.77,0,0,0,6.76-6.61l2.21-92.86a6.77,6.77,0,0,0-6.59-6.93h-.21L293.07,90.65a6.76,6.76,0,0,0-6.71,6.81Z"/><path class="cls-92" d="M454.47,196.23H296.34a7,7,0,0,1-7-6.77l-3.22-91.8a7,7,0,0,1,6.74-7.26h.26l163.57-1.07a7.06,7.06,0,0,1,5,2.1,7,7,0,0,1,2,5.08l-2.22,92.87A7,7,0,0,1,454.47,196.23Zm2.23-106.4h0L293.14,90.9a6.51,6.51,0,0,0-6.47,6.57v.18l3.22,91.79a6.49,6.49,0,0,0,6.51,6.29H454.47a6.55,6.55,0,0,0,6.51-6.36L463.2,96.5a6.52,6.52,0,0,0-6.37-6.67h-.13Z"/><path class="cls-93" d="M286.59,102.33H463.26l.28-4.84a7.43,7.43,0,0,0-7-7.84h-.48l-163.5,1.29a6.12,6.12,0,0,0-6.08,6.18v.07Z"/><polygon class="cls-94" points="295.48 109.73 295.48 162.86 349.56 162.86 349.56 109.45 295.48 109.73"/><rect class="cls-95" x="401.81" y="113.3" width="23.52" height="23.52"/><rect class="cls-96" x="429.57" y="113.3" width="23.52" height="23.52"/><rect class="cls-97" x="373.6" y="113.3" width="23.52" height="23.52"/><rect class="cls-98" x="392.94" y="150.54" width="60.15" height="5.63"/><rect class="cls-98" x="377.89" y="159.11" width="75.2" height="1.74"/><rect class="cls-98" x="378.6" y="139.82" width="14.39" height="1.74"/><rect class="cls-98" x="406.38" y="139.82" width="14.39" height="1.74"/><rect class="cls-98" x="434.14" y="139.82" width="14.39" height="1.74"/><rect class="cls-98" x="373.6" y="161.94" width="24.19" height="1.74"/><rect class="cls-98" x="377.89" y="164.75" width="75.2" height="1.74"/><rect class="cls-98" x="373.6" y="167.55" width="79.49" height="1.74"/><rect class="cls-98" x="373.6" y="170.35" width="79.49" height="1.74"/><rect class="cls-98" x="377.89" y="181.67" width="75.2" height="1.74"/><rect class="cls-98" x="373.6" y="184.47" width="79.49" height="1.74"/><rect class="cls-98" x="373.6" y="187.27" width="79.49" height="1.74"/><rect class="cls-98" x="373.6" y="173.15" width="76.3" height="1.74"/><rect class="cls-98" x="377.89" y="175.95" width="75.2" height="1.74"/><rect class="cls-98" x="373.6" y="178.75" width="64.41" height="1.74"/><path class="cls-99" d="M310.63,152.21A15.39,15.39,0,1,1,326,136.81h0A15.41,15.41,0,0,1,310.63,152.21Zm0-29.77A14.39,14.39,0,1,0,325,136.84v0A14.4,14.4,0,0,0,310.63,122.44Z"/><circle class="cls-10" cx="310.63" cy="136.82" r="8.36"/><path class="cls-99" d="M349.55,124.84a15.39,15.39,0,1,1,15.39-15.39h0A15.41,15.41,0,0,1,349.55,124.84Zm0-29.77a14.39,14.39,0,1,0,14.39,14.39,14.39,14.39,0,0,0-14.39-14.39h0Z"/><circle class="cls-10" cx="349.54" cy="109.44" r="7.87"/><polygon class="cls-10" points="292.79 95.12 293.91 93.41 299.99 98.74 299.06 100.04 292.79 95.12"/><polygon class="cls-10" points="300.15 95.12 299.02 93.41 292.94 98.74 293.88 100.04 300.15 95.12"/><rect class="cls-10" x="404.55" y="94.57" width="54.44" height="2.73"/><polygon class="cls-100" points="118.05 55.16 118.05 78.78 146.31 79.03 146.69 54.4 118.05 55.16"/><polygon class="cls-101" points="146.69 54.4 148.53 57.51 147.61 79 146.31 79.03 146.69 54.4"/><polygon class="cls-10" points="123.1 63.13 125.71 59.35 139.82 71.19 137.65 74.08 123.1 63.13"/><polygon class="cls-10" points="140.18 63.13 137.57 59.35 123.46 71.19 125.63 74.08 140.18 63.13"/><path class="cls-102" d="M184,333.22H87.28a7.93,7.93,0,0,1-7.92-7.74l-1.8-79.3a7.92,7.92,0,0,1,7.72-8.1H186.14a7.92,7.92,0,0,1,7.92,7.92v.21l-2.17,79.31A7.92,7.92,0,0,1,184,333.22Z"/><path class="cls-103" d="M184,333.47H87.28a8.22,8.22,0,0,1-8.17-8l-1.8-79.31a8.16,8.16,0,0,1,8-8.35H186.14a8.15,8.15,0,0,1,8.17,8.15v.24l-2.17,79.31A8.13,8.13,0,0,1,184,333.47ZM85.48,238.33A7.65,7.65,0,0,0,77.81,246v.21l1.8,79.31A7.72,7.72,0,0,0,87.28,333H184a7.64,7.64,0,0,0,7.67-7.46l2.17-79.3a7.67,7.67,0,0,0-7.46-7.88H85.48Z"/><rect class="cls-10" x="103.63" y="254.3" width="50.85" height="2.18"/><rect class="cls-10" x="103.63" y="259.59" width="25.42" height="2.18"/><rect class="cls-10" x="103.63" y="264.01" width="25.42" height="2.18"/><rect class="cls-10" x="131.9" y="264.01" width="20.23" height="2.18"/><rect class="cls-10" x="103.63" y="268.43" width="40.99" height="2.18"/><rect class="cls-10" x="103.63" y="272.85" width="14.59" height="2.18"/><rect class="cls-10" x="121.22" y="286.12" width="25.23" height="2.18"/><rect class="cls-10" x="103.63" y="277.28" width="45.73" height="2.18"/><rect class="cls-10" x="103.63" y="281.7" width="35.18" height="2.18"/><rect class="cls-10" x="103.63" y="286.12" width="16.55" height="2.18"/><rect class="cls-10" x="103.63" y="290.54" width="25.42" height="2.18"/><rect class="cls-10" x="103.63" y="294.96" width="7.29" height="2.18"/><rect class="cls-10" x="113.92" y="294.96" width="26.46" height="2.18"/><rect class="cls-10" x="121.22" y="299.25" width="25.23" height="2.18"/><rect class="cls-10" x="103.63" y="299.25" width="16.55" height="2.18"/><rect class="cls-10" x="103.63" y="303.67" width="25.42" height="2.18"/><rect class="cls-10" x="103.63" y="308.09" width="7.29" height="2.18"/><rect class="cls-10" x="113.92" y="308.09" width="26.46" height="2.18"/><path class="cls-104" d="M443.42,71.88A4.47,4.47,0,1,1,439,67.41a4.47,4.47,0,0,1,4.47,4.47Z"/><path class="cls-105" d="M24.52,175.52A5.57,5.57,0,1,1,18.94,170h0A5.56,5.56,0,0,1,24.52,175.52Z"/><circle class="cls-106" cx="452.08" cy="71.88" r="4.47"/><circle class="cls-107" cx="163.91" cy="102.6" r="3.16"/><circle class="cls-108" cx="375.56" cy="242.04" r="3.16"/><circle class="cls-109" cx="47.04" cy="273.55" r="2.82"/><path class="cls-110" d="M95.19,245.81H46.39a7.28,7.28,0,0,1-7.27-7L38,206.72a7.29,7.29,0,0,1,7-7.53H96.18a7.27,7.27,0,0,1,7.27,7.29v.21l-1,32.1A7.28,7.28,0,0,1,95.19,245.81Z"/><path class="cls-111" d="M95.19,246H46.39a7.5,7.5,0,0,1-7.52-7.28l-1.09-32.09a7.56,7.56,0,0,1,7.31-7.79H96.18a7.52,7.52,0,0,1,7.52,7.54v.22l-1,32.1A7.49,7.49,0,0,1,95.19,246ZM45.31,199.38a7,7,0,0,0-7,7c0,.1,0,.19,0,.28l1.09,32.09a7,7,0,0,0,7,6.8H95.2a7,7,0,0,0,7-6.82l1-32.09a7,7,0,0,0-6.75-7.25H45.31Z"/><polygon class="cls-10" points="59.41 210.68 47.38 224.62 59.63 235.03 59.63 229.66 52.54 223.52 59.12 216.08 59.41 210.68"/><polygon class="cls-10" points="80.56 211.3 92.59 225.25 80.34 235.65 80.34 230.28 87.42 224.15 79.54 215.8 80.56 211.3"/><polygon class="cls-10" points="62.03 235.03 72.51 211.93 77.44 211.93 65.57 235.03 62.03 235.03"/><path class="cls-112" d="M423.52,311.86h-61a9.1,9.1,0,0,1-9.1-8.8L352,262.91a9.13,9.13,0,0,1,8.82-9.42h63.92a9.11,9.11,0,0,1,9.11,9.13v.26L432.63,303A9.11,9.11,0,0,1,423.52,311.86Z"/><path class="cls-111" d="M423.52,312.11h-61a9.32,9.32,0,0,1-9.35-9L351.76,263a9.35,9.35,0,0,1,9-9.67h64a9.36,9.36,0,0,1,9.36,9.36v.28L432.88,303A9.33,9.33,0,0,1,423.52,312.11Zm-62.4-58.37a8.86,8.86,0,0,0-8.86,8.88v.28L353.62,303a8.82,8.82,0,0,0,8.85,8.56h61a8.82,8.82,0,0,0,8.86-8.59l1.23-40.15a8.86,8.86,0,0,0-8.59-9.13h-63.9Z"/><rect class="cls-98" x="364.25" y="259.95" width="55.91" height="33.21"/><polygon class="cls-10" points="387.25 268.19 387.25 284.92 401.54 275.79 387.25 268.19"/><rect class="cls-98" x="364.25" y="299.27" width="55.91" height="3.04"/><rect class="cls-10" x="364.25" y="299.27" width="14.47" height="3.04"/><path class="cls-113" d="M323.28,249.46l-2.91,8.34C322,253.19,324.3,250.2,323.28,249.46Zm-2.91,8.34-2.93,8.35c.74-.22,1.31-3.73,2.93-8.35Zm2.91-8.34-2.91,8.34C322,253.19,324.3,250.2,323.28,249.46Zm-2.91,8.34-2.93,8.35c.74-.22,1.31-3.73,2.93-8.35Zm8.42,7.24,2.84,1.6,3.06-8.35-3.28-.55c.06-.31.11-.62.15-.92a21.56,21.56,0,0,0,.28-4.17l3.43-2.15-1.57-7.36-3.29,3.15a9.72,9.72,0,0,0-1.71-2.45,6,6,0,0,0-.57-.56l2-4.64-5.35-1.74h0l-1.28,4.68a8.74,8.74,0,0,0-3.62.85l-.59-4.42-5.89,4.45,1.36,3.92a22.14,22.14,0,0,0-2.87,4.18l-2.84-1.6L306,257.31l3.28.55a22.26,22.26,0,0,0-.43,5.09l-3.43,2.15,1.56,7.36,3.29-3.14a9.08,9.08,0,0,0,2.25,3l-2,4.65,5.26,2,.81-3,.56-2a9.11,9.11,0,0,0,3.63-.85l.58,4.42,5.89-4.46-1.36-3.91a22.14,22.14,0,0,0,2.31-3.21A7.06,7.06,0,0,0,328.79,265Zm-8.42-7.24c-1.62,4.62,0,9.37-2.93,8.35s-4-5.6-2.38-10.2,5.3-7.52,8.22-6.49-1.3,3.73-2.91,8.34Zm2.91-8.34-2.91,8.34C322,253.19,324.3,250.2,323.28,249.46Zm-2.91,8.34-2.93,8.35c.74-.22,1.31-3.73,2.93-8.35Z"/><path class="cls-114" d="M331.63,266.64l3.06-8.35-3.13-1.47-.5-.24.33-4.6,3.46-1.69-1.15-7.15-7.55-2.45,1.39,3.31,2.63-5.36-5.35-1.74-2.19-.71-5.27-2.06-1,3.6-4.59-2.18L305.91,240l1.78,4.82-5.5,15.27L299.47,270l5.23.57L303,274.54l5.28,2.06,7.54,2.45-1.21-2.42-.76-1.45,2.78.91,4.77,1.55,5.89-4.46-3.64-4.29,4.59-2.83ZM315.06,256c1.62-4.61,5.3-7.52,8.22-6.49l-2.91,8.34-2.93,8.35C314.51,265.12,313.44,260.55,315.06,256Z"/><path class="cls-115" d="M324.08,264.18l3.06-8.35-3.28-.55a23.42,23.42,0,0,0,.44-5.08l3.4-2.16-1.57-7.36-3.29,3.14a9,9,0,0,0-2.25-3l2-4.64-5.27-2.06-1.37,5a8.88,8.88,0,0,0-3.62.84l-.58-4.41L305.91,240l1.35,3.92a22.21,22.21,0,0,0-2.87,4.19l-2.84-1.6-3.05,8.35,3.28.55a22.23,22.23,0,0,0-.44,5.08l-3.43,2.15,1.56,7.36,3.29-3.14a9.22,9.22,0,0,0,2.25,3l-2,4.64,5.27,2,1.36-5a8.94,8.94,0,0,0,3.63-.85l.58,4.42,5.89-4.46-1.36-3.91a22.21,22.21,0,0,0,2.87-4.19Zm-14.19-.49c-2.93-1-4-5.6-2.38-10.2s5.3-7.52,8.23-6.49,4,5.59,2.38,10.2-5.3,7.51-8.23,6.49Z"/><polygon class="cls-116" points="335.27 250.5 327.73 248.04 324.3 250.19 331.85 252.65 335.27 250.5"/><polygon class="cls-117" points="327.28 273.14 319.73 270.68 318.38 266.76 325.92 269.22 327.28 273.14"/><polygon class="cls-116" points="320.63 240.82 324.77 242.02 326.17 240.69 328.91 241.58 330.19 238.64 322.64 236.18 320.63 240.82"/><path class="cls-116" d="M309.63,271.57l3.95,1.64-.32-2.49A7.07,7.07,0,0,1,309.63,271.57Z"/><path class="cls-116" d="M310.24,248.94l6.66,3.52a10.11,10.11,0,0,1,1.71-1.81S316.87,243.31,310.24,248.94Z"/><polygon class="cls-118" points="157.49 0 163.91 12.85 159.62 14.8 153.62 3 157.49 0"/><polygon class="cls-119" points="13.04 299.34 18.98 305.86 21.31 303.17 15.71 297 13.04 299.34"/><polygon class="cls-120" points="314.82 78.41 308.84 82.03 306.44 77.49 312.98 73.67 314.82 78.41"/><polygon class="cls-120" points="344.26 308.12 335.69 314.21 333.3 309.66 341.62 304.8 344.26 308.12"/><polygon class="cls-121" points="332.94 47.33 331.49 13.68 375.56 13.68 373.75 47.24 332.94 47.33"/><polygon class="cls-122" points="331.49 13.68 330.17 15.66 331.49 47.33 332.94 47.33 331.49 13.68"/><polygon class="cls-10" points="346.13 20.4 339.21 19.66 340.16 42.72 346.13 42.13 346.13 39.75 342.67 39.83 342.27 22.04 346.13 22.15 346.13 20.4"/><polygon class="cls-10" points="360.29 20.4 367.2 19.66 366.26 42.72 360.29 42.13 360.29 39.75 363.75 39.83 364.14 22.04 360.29 22.15 360.29 20.4"/><polygon class="cls-123" points="29.06 121.02 30.04 98.07 0 98.07 1.24 120.95 29.06 121.02"/><polygon class="cls-124" points="30.04 98.07 30.94 99.42 30.04 121.02 29.06 121.02 30.04 98.07"/><path class="cls-10" d="M18.47,102.69a20.86,20.86,0,0,1,3.87.14c.58.27-.15,5.64-.15,5.64l1.31,1.2-1.22,1.19s.06,5.44-.71,5.9-3.43,0-3.43,0V115.4a7.6,7.6,0,0,0,2.56-.16c.36-.29.33-5,.33-5l.58-.63-.58-.69s.1-3.39,0-4.32c0-.62-2.56-.65-2.56-.65Z"/><path class="cls-10" d="M10.92,102.69a20.86,20.86,0,0,0-3.87.14c-.59.27.15,5.64.15,5.64l-1.32,1.2,1.23,1.19s-.06,5.44.71,5.9,3.42,0,3.42,0V115.4a7.48,7.48,0,0,1-2.54-.16c-.36-.29-.33-5-.33-5l-.58-.63.58-.69s-.11-3.39,0-4.32c0-.62,2.56-.65,2.56-.65Z"/><path class="cls-92" d="M283.1,72.47,275.7,53.2l19.09,4Zm-6.57-18.59,6.72,17.58L294,57.52Z"/><rect class="cls-92" x="333.42" y="340.83" width="10.94" height="0.5" transform="translate(-136.55 412.78) rotate(-53.76)"/><polygon class="cls-92" points="275.16 264.3 268.21 255.65 268.6 255.34 275.55 263.99 275.16 264.3"/><polygon class="cls-92" points="60.83 325.02 46.96 314.96 47.26 314.56 61.12 324.62 60.83 325.02"/><rect class="cls-92" x="45.48" y="319.55" width="17.13" height="0.5" transform="translate(-233.1 168.99) rotate(-52.7)"/><rect class="cls-92" x="33.83" y="169.87" width="0.5" height="10.14" transform="translate(-136.63 123.73) rotate(-62.28)"/><polygon class="cls-92" points="383.29 56.51 382.92 56.18 393.29 44.35 393.67 44.68 383.29 56.51"/><rect class="cls-92" x="183.68" y="84.68" width="0.5" height="10.41" transform="translate(-20.79 91.33) rotate(-26.45)"/><rect class="cls-92" x="106.37" y="246.89" width="15.54" height="0.5" transform="translate(-131.97 130.8) rotate(-39.91)"/></g></g></svg>