<svg xmlns="http://www.w3.org/2000/svg" viewBox="0 0 641.89 420.08"><defs><style>.cls-1{fill:#e6e6e6;}.cls-2{fill:#f0f0f0;}.cls-20,.cls-21,.cls-25,.cls-26,.cls-3{fill:#fff;}.cls-4{fill:#ebebeb;}.cls-5{fill:#e0e0e0;}.cls-6{fill:#f5f5f5;}.cls-7{fill:#407bff;}.cls-8{fill:#263238;}.cls-12,.cls-13,.cls-18,.cls-9{opacity:0.2;}.cls-10,.cls-13,.cls-15,.cls-28{fill:none;stroke-linecap:round;stroke-linejoin:round;}.cls-10{stroke:#407bff;}.cls-10,.cls-13,.cls-15{stroke-width:0.5px;}.cls-11{fill:#eec1bb;}.cls-12,.cls-18,.cls-21{isolation:isolate;}.cls-13{stroke:#000;}.cls-14{fill:#d4827d;}.cls-15,.cls-28{stroke:#263238;}.cls-16,.cls-17,.cls-26{opacity:0.3;}.cls-19{fill:#dc5753;}.cls-20,.cls-31{opacity:0.5;}.cls-21{opacity:0.8;}.cls-22,.cls-23{opacity:0.4;}.cls-24{fill:#e9b376;}.cls-25{opacity:0.7;}.cls-27{fill:#d58745;}.cls-28{stroke-width:0.75px;}.cls-29{fill:#b97964;}.cls-30{fill:#a24e3f;}</style></defs><g id="Layer_2" data-name="Layer 2"><g id="Background_complete" data-name="Background complete"><rect class="cls-1" x="506.02" y="17.86" width="54.48" height="106.99"/><rect class="cls-2" x="493.84" y="17.86" width="63.99" height="106.99"/><rect class="cls-3" x="503.56" y="27.37" width="44.51" height="87.98"/><rect class="cls-4" x="517.72" y="53.61" width="17.3" height="34.2"/><rect class="cls-1" x="79.78" y="17.86" width="54.48" height="106.99"/><rect class="cls-2" x="67.59" y="17.86" width="63.99" height="106.99"/><rect class="cls-3" x="77.32" y="27.37" width="44.51" height="87.98"/><rect class="cls-4" x="91.48" y="53.61" width="17.3" height="34.2"/><path class="cls-5" d="M607.7,275H434.2a5.75,5.75,0,0,1-5.62-5.86V5.86A5.75,5.75,0,0,1,434.2,0H607.7a5.76,5.76,0,0,1,5.63,5.86V269.14A5.76,5.76,0,0,1,607.7,275ZM434.2.25a5.5,5.5,0,0,0-5.38,5.61V269.14a5.5,5.5,0,0,0,5.38,5.61H607.7a5.51,5.51,0,0,0,5.39-5.61V5.86A5.51,5.51,0,0,0,607.7.25Z"/><path class="cls-5" d="M407.63,275H234.13a5.75,5.75,0,0,1-5.62-5.86V5.86A5.75,5.75,0,0,1,234.13,0h173.5a5.76,5.76,0,0,1,5.63,5.86V269.14A5.76,5.76,0,0,1,407.63,275ZM234.13.25a5.5,5.5,0,0,0-5.38,5.61V269.14a5.5,5.5,0,0,0,5.38,5.61h173.5a5.51,5.51,0,0,0,5.39-5.61V5.86A5.51,5.51,0,0,0,407.63.25Z"/><path class="cls-5" d="M207.69,275H34.19a5.75,5.75,0,0,1-5.62-5.86V5.86A5.75,5.75,0,0,1,34.19,0h173.5a5.76,5.76,0,0,1,5.63,5.86V269.14A5.76,5.76,0,0,1,207.69,275ZM34.19.25a5.5,5.5,0,0,0-5.38,5.61V269.14a5.5,5.5,0,0,0,5.38,5.61h173.5a5.51,5.51,0,0,0,5.39-5.61V5.86A5.51,5.51,0,0,0,207.69.25Z"/><rect class="cls-5" x="15.4" y="336.08" width="611.1" height="0.1"/><rect class="cls-4" x="588.4" y="365.44" width="53.49" height="0.42"/><rect class="cls-4" x="436.18" y="370.01" width="14.04" height="0.42"/><rect class="cls-4" y="352.65" width="69.76" height="0.42"/><rect class="cls-4" x="84.14" y="352.65" width="10.23" height="0.42"/><rect class="cls-4" x="127.61" y="359.75" width="151.29" height="0.42"/><path class="cls-4" d="M189.9,63.9A36.72,36.72,0,0,0,185,76.23l-6.61.65V90.22l6.62.65a36.49,36.49,0,0,0,4.88,12.33l-4.22,5.32,9,9.43,5.1-4.4a33.49,33.49,0,0,0,11.84,5.09l.63,6.89h12.8l.63-6.89a33.49,33.49,0,0,0,11.84-5.09l5.1,4.4,9.05-9.43-4.22-5.32a36.72,36.72,0,0,0,4.89-12.33l6.61-.65V76.88l-6.61-.65A36.72,36.72,0,0,0,247.5,63.9l4.22-5.32-9.05-9.43-5.1,4.4a33.31,33.31,0,0,0-11.84-5.09l-.63-6.89H212.3l-.63,6.89a33.49,33.49,0,0,0-11.84,5.09l-5.1-4.4-9,9.43ZM231,70.78a18.6,18.6,0,0,1,0,25.54,16.86,16.86,0,0,1-24.52,0,18.6,18.6,0,0,1,0-25.54A16.86,16.86,0,0,1,231,70.78Z"/><path class="cls-4" d="M214.89,224.81a18.31,18.31,0,0,0-2.44,6.17l-3.31.32V238l3.31.32a18.31,18.31,0,0,0,2.44,6.17l-2.11,2.65,4.52,4.72,2.55-2.2a16.64,16.64,0,0,0,5.92,2.54l.31,3.45h6.4l.31-3.45a16.57,16.57,0,0,0,5.92-2.54l2.55,2.2,4.53-4.72-2.11-2.65a18.23,18.23,0,0,0,2.44-6.17l3.3-.32V231.3l-3.3-.32a18.13,18.13,0,0,0-2.45-6.17l2.12-2.65-4.53-4.72-2.55,2.2a16.75,16.75,0,0,0-5.92-2.54l-.31-3.45h-6.4l-.31,3.45a16.82,16.82,0,0,0-5.92,2.54l-2.55-2.2-4.52,4.72Zm20.52,3.44a9.31,9.31,0,0,1,0,12.77,8.43,8.43,0,0,1-12.25,0,9.29,9.29,0,0,1,0-12.77A8.43,8.43,0,0,1,235.41,228.25Z"/><path class="cls-4" d="M32.46,155.22A28.79,28.79,0,0,0,28.6,165l-5.22.51V176l5.22.51a28.71,28.71,0,0,0,3.86,9.74l-3.34,4.2,7.15,7.44,4-3.47a26.39,26.39,0,0,0,9.35,4l.49,5.44H60.25l.49-5.44a26.42,26.42,0,0,0,9.34-4l4,3.47,7.15-7.44-3.33-4.2a28.89,28.89,0,0,0,3.85-9.74L87,176V165.47L81.78,165a29.06,29.06,0,0,0-3.85-9.74L81.26,151l-7.15-7.45-4,3.47a26.42,26.42,0,0,0-9.34-4l-.49-5.43H50.14L49.65,143a26.39,26.39,0,0,0-9.35,4l-4-3.47L29.12,151Zm32.41,5.44a14.69,14.69,0,0,1,0,20.16,13.31,13.31,0,0,1-19.35,0,14.67,14.67,0,0,1,0-20.16A13.29,13.29,0,0,1,64.87,160.66Z"/><path class="cls-4" d="M581.93,133.7a13.47,13.47,0,0,0-1.8,4.56l-2.45.24v4.93l2.45.24a13.47,13.47,0,0,0,1.8,4.56l-1.56,2,3.35,3.49,1.88-1.63a12.28,12.28,0,0,0,4.38,1.88l.23,2.55h4.73l.23-2.55a12.24,12.24,0,0,0,4.37-1.88l1.89,1.63,3.34-3.49-1.56-2a13.49,13.49,0,0,0,1.81-4.56l2.44-.24V138.5l-2.44-.24a13.49,13.49,0,0,0-1.81-4.56l1.56-2-3.34-3.48-1.89,1.62a12.24,12.24,0,0,0-4.37-1.88l-.23-2.55h-4.73L590,128a12.28,12.28,0,0,0-4.38,1.88l-1.88-1.63-3.35,3.49Zm15.17,2.55a6.87,6.87,0,0,1,0,9.43,6.22,6.22,0,0,1-9.06,0,6.87,6.87,0,0,1,0-9.43A6.22,6.22,0,0,1,597.1,136.25Z"/><path class="cls-6" d="M401.52,72.06a13.26,13.26,0,0,0-1.8,4.56l-2.45.24v4.93l2.45.24a13.29,13.29,0,0,0,1.8,4.55l-1.56,2L403.31,92l1.88-1.62a12.39,12.39,0,0,0,4.38,1.88l.23,2.54h4.73l.23-2.54a12.42,12.42,0,0,0,4.37-1.88L421,92l3.34-3.48-1.56-2A13.52,13.52,0,0,0,424.61,82l2.44-.24V76.86l-2.44-.24a13.49,13.49,0,0,0-1.81-4.56l1.56-2L421,66.61l-1.89,1.63a12.24,12.24,0,0,0-4.37-1.88l-.23-2.55H409.8l-.23,2.55a12.21,12.21,0,0,0-4.38,1.88l-1.88-1.63L400,70.1Zm15.17,2.54a6.88,6.88,0,0,1,0,9.44,6.22,6.22,0,0,1-9.06,0,6.88,6.88,0,0,1,0-9.44A6.24,6.24,0,0,1,416.69,74.6Z"/><path class="cls-6" d="M84.89,213.52a13.49,13.49,0,0,0-1.81,4.56l-2.44.24v4.93l2.44.24a13.49,13.49,0,0,0,1.81,4.56l-1.57,2,3.35,3.49,1.88-1.63a12.36,12.36,0,0,0,4.38,1.88l.23,2.55h4.73l.23-2.55a12.36,12.36,0,0,0,4.38-1.88l1.88,1.63,3.35-3.49-1.56-2a13.67,13.67,0,0,0,1.8-4.56l2.44-.24v-4.93l-2.44-.24a13.67,13.67,0,0,0-1.8-4.56l1.56-2-3.35-3.49-1.88,1.63a12.36,12.36,0,0,0-4.38-1.88l-.23-2.55H93.16l-.23,2.55a12.36,12.36,0,0,0-4.38,1.88l-1.88-1.63-3.35,3.49Zm15.16,2.55a6.85,6.85,0,0,1,0,9.43,6.21,6.21,0,0,1-9,0,6.87,6.87,0,0,1,0-9.43A6.21,6.21,0,0,1,100.05,216.07Z"/><path class="cls-4" d="M512.92,153.58a23.22,23.22,0,0,0-3.1,7.84l-4.2.41v8.47l4.2.41a23.09,23.09,0,0,0,3.1,7.83l-2.68,3.38,5.75,6,3.24-2.8a21.29,21.29,0,0,0,7.52,3.24l.39,4.37h8.13l.4-4.37a21.37,21.37,0,0,0,7.52-3.24l3.24,2.8,5.75-6-2.69-3.38a23.11,23.11,0,0,0,3.11-7.83l4.2-.41v-8.47l-4.2-.41a23.24,23.24,0,0,0-3.11-7.84l2.69-3.37-5.75-6L543.19,147a21.35,21.35,0,0,0-7.52-3.23l-.4-4.37h-8.13l-.39,4.37a21.27,21.27,0,0,0-7.52,3.23L516,144.22l-5.75,6ZM539,158a11.81,11.81,0,0,1,0,16.22,10.7,10.7,0,0,1-15.57,0,11.82,11.82,0,0,1,0-16.22A10.7,10.7,0,0,1,539,158Z"/><path class="cls-4" d="M351.32,201.08a23.24,23.24,0,0,0-3.13,7.89l-4.23.42v8.53l4.23.42a23.33,23.33,0,0,0,3.13,7.89l-2.7,3.4,5.79,6,3.27-2.82a21.21,21.21,0,0,0,7.57,3.26l.4,4.41h8.2l.39-4.41a21.18,21.18,0,0,0,7.58-3.26l3.27,2.82,5.79-6-2.7-3.4a23.22,23.22,0,0,0,3.12-7.89l4.24-.42v-8.53l-4.23-.42a23.45,23.45,0,0,0-3.13-7.89l2.7-3.4-5.79-6-3.27,2.82a21.18,21.18,0,0,0-7.58-3.26l-.39-4.41h-8.2l-.4,4.41a21.36,21.36,0,0,0-7.57,3.25l-3.27-2.81-5.79,6Zm26.27,4.4a11.91,11.91,0,0,1,0,16.35,10.79,10.79,0,0,1-15.69,0,11.91,11.91,0,0,1,0-16.35A10.79,10.79,0,0,1,377.59,205.48Z"/><path class="cls-4" d="M375.34,281.54a38.9,38.9,0,0,0-5.25,13.25l-7.1.7v14.32l7.1.7a39,39,0,0,0,5.25,13.25l-4.54,5.7,9.72,10.13,5.48-4.72a35.92,35.92,0,0,0,12.72,5.46l.67,7.4h13.75l.67-7.39a36,36,0,0,0,12.71-5.47l5.48,4.72,9.73-10.13-4.54-5.7a39.4,39.4,0,0,0,5.25-13.25l7.1-.7V295.49l-7.1-.7a39.4,39.4,0,0,0-5.25-13.25l4.54-5.7L432,265.71l-5.48,4.72A36.08,36.08,0,0,0,413.81,265l-.67-7.4H399.39l-.67,7.39A36.12,36.12,0,0,0,386,270.43l-5.48-4.73-9.72,10.13Zm44.09,7.4a20,20,0,0,1,0,27.42,18.09,18.09,0,0,1-26.33,0,20,20,0,0,1,0-27.42A18.09,18.09,0,0,1,419.43,288.94Z"/></g><g id="Shadow"><path class="cls-6" d="M633.41,401.05c0,3.39-135.6,6.14-302.86,6.14s-302.86-2.75-302.86-6.14,135.59-6.13,302.86-6.13S633.41,397.67,633.41,401.05Z"/></g><g id="Plant"><path class="cls-7" d="M73.37,226.82c-17.5,21.33-22.62,52.9-12.8,79,10.91-10.14,18.6-25.6,19.08-39.13S76.74,239.89,73.37,226.82Z"/><path class="cls-7" d="M70.32,308.32a54,54,0,0,0-8,32.31c9.46-3.43,17.8-14.56,22.8-23.61s7.8-19.2,10.35-29.3A50.66,50.66,0,0,0,70.32,308.32Z"/><path class="cls-8" d="M68.12,264.07a313.09,313.09,0,0,0-10.6,80.86q0,11.71.9,23.4c0,.48.78.48.75,0a312.43,312.43,0,0,1,4.57-81.74q2.15-11.25,5.1-22.32a.37.37,0,0,0-.72-.2Z"/><path class="cls-8" d="M58.64,349.55a252.35,252.35,0,0,1,27.55-50.1c.27-.4-.38-.78-.65-.38a253,253,0,0,0-27.62,50.28c-.18.45.54.65.72.2Z"/><path class="cls-7" d="M48.44,323.09a45.16,45.16,0,0,1,6.64,27c-7.9-2.86-14.85-12.15-19-19.69s-6.5-16-8.63-24.43A42.21,42.21,0,0,1,48.44,323.09Z"/><path class="cls-8" d="M58.43,356.28A205.83,205.83,0,0,0,35.8,315.35c-.28-.4-.93,0-.65.37a205.51,205.51,0,0,1,22.56,40.76c.17.44.9.24.72-.2Z"/><path class="cls-8" d="M58.7,361.13c11.13-11.93,22.51-23.63,33.64-35.57.33-.35-.2-.88-.53-.53C80.68,337,69.3,348.67,58.17,360.6c-.33.35.2.88.53.53Z"/><path class="cls-7" d="M92.75,320.08A226.78,226.78,0,0,0,66.49,351.8h1.77a26.08,26.08,0,0,0,19.1-10.11A28.39,28.39,0,0,0,92.75,320.08Z"/><path class="cls-8" d="M47,296.93q6.23,10.62,11.71,21.64c.22.43.87.05.65-.38q-5.49-11-11.72-21.63a.37.37,0,0,0-.64.37Z"/><path class="cls-7" d="M37,261.25c-1.59,7.42-3.15,17.06-3.17,24.78s2.24,15.25,6.45,20.42,12.71,7.44,16.14,4.48Z"/><rect class="cls-8" x="36.8" y="364.57" width="42.2" height="8.15"/><polygon class="cls-8" points="72.17 401.75 45.96 401.75 41.2 370.85 75.93 370.85 72.17 401.75"/><polygon class="cls-9" points="41.51 372.87 75.68 372.87 75.26 376.37 42.05 376.37 41.51 372.87"/></g><g id="Speech_Bubble_2" data-name="Speech Bubble 2"><path class="cls-7" d="M570.69,188.49c10.66-6.35,24.24-2.5,30.34,8.61s2.4,25.26-8.27,31.61a21.52,21.52,0,0,1-25.11-2.2l-6.6,1.08,1.57-7.17c-.06-.11-.14-.21-.2-.32C556.33,209,560,194.84,570.69,188.49Z"/><path class="cls-10" d="M574.64,183.35a22.31,22.31,0,0,0-16,13.82"/><path class="cls-10" d="M557.51,200.42a8.66,8.66,0,0,0-.8,3.32"/><polygon class="cls-3" points="579.12 217.35 569.73 208.43 572.72 205.02 579.02 211 589.48 200.36 592.57 203.67 579.12 217.35"/></g><g id="Speech_Bubble_1" data-name="Speech Bubble 1"><path class="cls-7" d="M341.66,40.57c11.2-6.78,25.56-2.82,32.06,8.85s2.71,26.62-8.49,33.4a22.68,22.68,0,0,1-26.51-2.13l-7,1.19,1.61-7.57c-.07-.11-.15-.22-.22-.34C326.65,62.3,330.46,47.35,341.66,40.57Z"/><path class="cls-10" d="M373.76,43.79a22.85,22.85,0,0,0-19.94-9.5"/><path class="cls-10" d="M350.34,34.68a8,8,0,0,0-3.39.73"/><rect class="cls-3" x="341.7" y="58.18" width="21.91" height="5.71"/><polygon class="cls-3" points="361.59 67 361.59 55.47 366.99 61.23 361.59 67"/></g><g id="Character_3" data-name="Character 3"><path class="cls-11" d="M485.16,185.71s-.58,10.47-5.49,28.82a300.09,300.09,0,0,1-11.19,33.35C466,254,463.22,260.54,460,267.4c-1.45,3.12-3,6.29-4.63,9.54-1.88,55.55-31.81,112-31.81,112-1.66.89-7.45-.08-7.41-1.84,4.43-7.32,13.15-78.5,18.77-112.27.35-4.59.86-9.45,1.48-14.59,1.64-13.63,4.08-28.45,6.48-41.49,3.72-20.54,7.25-36.64,7.25-36.64l9.86,1Z"/><path class="cls-8" d="M423.23,400.94h-1.69l-.48-2.21-5.7,2.7H400.92s-2.29-2.4,4.57-4.31a4.8,4.8,0,0,0,1-.39c3.67-1.79,8.88-7.84,8.88-7.84h7.91a9.27,9.27,0,0,1,.65,1.2C424.77,391.87,426.26,395.73,423.23,400.94Z"/><path class="cls-11" d="M423.9,390.07h0c-1-1.22-5.79,4.11-9.27,5.93-3.11,1.61-6.61,2.33-8.17.69,3.67-1.79,10.2-10.19,10.2-10.19l5.6.58S423.54,389.28,423.9,390.07Z"/><path class="cls-11" d="M496.93,262.61h0q-1.2,9-3.07,19.18c10.69,37.15-11.3,109.67-11.3,109.67-3.72.77-7,.27-8.68-1,4.15-21.85,1.17-78.66-2.06-112.6-.28-3.08-.65-6.47-1-10.08-.67-6.13-1.46-12.88-2.3-19.86-1.42-11.67-3-23.95-4.45-34.84-1.77-13.16-3.3-24.3-4.09-29.9-.32-2.45-.51-3.84-.51-3.84l30.86,3.48s7.85,9.16,9.06,37.79A243.24,243.24,0,0,1,496.93,262.61Z"/><path class="cls-8" d="M483.33,400.94H481.6l-.48-2.21-5.68,2.7H461s-2.29-2.4,4.59-4.31a5,5,0,0,0,1-.39c3.66-1.79,8.88-7.84,8.88-7.84h7.91a11.62,11.62,0,0,1,.65,1.2C484.87,391.87,486.32,395.73,483.33,400.94Z"/><path class="cls-11" d="M484,390.07h0c-1.05-1.22-5.8,4.11-9.29,5.93-3.11,1.61-6.61,2.33-8.15.69,3.65-1.79,9.42-9.61,9.42-9.61h6.36S483.62,389.28,484,390.07Z"/><path class="cls-8" d="M505,105c-1.58-1.42-4.14-.88-6.32-1.14-3.31-.41-6-2.9-7.4-5.72s-1.84-6-2.34-9.08-1.17-6.25-3-8.87-6.19-5.86-9.37-3.88l-4.26,6.87a215.45,215.45,0,0,1,6.22,24.5c.71,3.69,1.41,7.6,4,10.47s6.51,4.19,10.43,4.46a12.88,12.88,0,0,0,5.85-.77,6.16,6.16,0,0,0,3.75-4.07,4.07,4.07,0,0,0-2.4-4.63A12.32,12.32,0,0,0,505,110C506.19,108.56,506.45,106.26,505,105Z"/><path class="cls-8" d="M444.07,70.79a16.38,16.38,0,0,0-4.71,14.73c1.63,5.29,4.11,8.78,6.43,13.77L454,65C450.93,66.27,449.36,65.85,444.07,70.79Z"/><path class="cls-8" d="M458.74,64.79c9.5.2,19,8.48,19.78,16.5s-6.83,18.39-8.26,19L465.77,102s5-12,2.9-15.15-3.55-3.23-3.55-3.23Z"/><path class="cls-8" d="M450.68,66.69c4.94-3.64,10.77-1.55,14.24,0a16.43,16.43,0,0,1,7.56,10.92c.75,4.31,1.67,9.54-.45,12.27a6.73,6.73,0,0,1-4.84,2.7l-23.93-15.8A25.16,25.16,0,0,1,450.68,66.69Z"/><path class="cls-11" d="M460.33,125.14c1.87,1.4,3.21.56,5.15-.74,11.69-7.06,6.89-12.65,6.89-12.65-2.88-2.45-3.59-5.9-3.65-11.35a3.78,3.78,0,0,0-.06-.47,3.47,3.47,0,0,0-1-1.84,3.31,3.31,0,0,0-4.82,0h0l-5.31,2.73h0v.26c.49,2.9,1,5.13,1.25,6.9a3.29,3.29,0,0,0,.1.64h0a2.92,2.92,0,0,0,.09.66c.28,2.45-3,6.75-4.48,7.89C453.65,117.91,454,120.45,460.33,125.14Z"/><path class="cls-12" d="M457.57,100.71h0a.82.82,0,0,1,0,.27c.5,2.89,1,5.13,1.26,6.9a4.49,4.49,0,0,1,.1.64h0a5.31,5.31,0,0,1,0,.69h0a22.37,22.37,0,0,0,9.62-9.33h0a3.73,3.73,0,0,0-.92-1.85,3.32,3.32,0,0,0-4.82-.08Z"/><path class="cls-11" d="M469.44,79.43c1.53,10,2.39,14.21-1.21,20.49-5.43,9.44-17.28,9.45-21.64.16-3.85-8.38-5.74-23.32,2.49-29.61S467.9,69.41,469.44,79.43Z"/><path class="cls-11" d="M475.18,87.17a8.2,8.2,0,0,1-3.63,5c-2.34,1.36-4.72-2.47-4.55-5.33a5.33,5.33,0,0,1,4.79-5C474.32,81.7,475.86,84.5,475.18,87.17Z"/><path class="cls-13" d="M469.75,88.14a3.87,3.87,0,0,1,.52-2.78,3.6,3.6,0,0,1,2.26-1.58"/><path class="cls-8" d="M457.72,86.1c.22,1.05-.1,2.06-.72,2.25s-1.3-.51-1.52-1.57.09-2.06.71-2.25S457.49,85,457.72,86.1Z"/><path class="cls-8" d="M448.38,88.7c.21,1-.11,2-.73,2.2s-1.29-.49-1.51-1.52.11-2,.73-2.19S448.16,87.68,448.38,88.7Z"/><path class="cls-8" d="M458.75,81.91a.48.48,0,0,1-.37,0,3.4,3.4,0,0,0-3.35,0,.43.43,0,0,1-.63-.17.56.56,0,0,1,.18-.71,4.29,4.29,0,0,1,4.25,0,.54.54,0,0,1,.18.69A.55.55,0,0,1,458.75,81.91Z"/><path class="cls-8" d="M444,84.64a.39.39,0,0,1-.27-.15.56.56,0,0,1,.07-.7,4,4,0,0,1,3.77-1.35.48.48,0,0,1,.26.6.45.45,0,0,1-.53.36,3.17,3.17,0,0,0-3,1.11A.42.42,0,0,1,444,84.64Z"/><path class="cls-14" d="M450.79,87.5a35.91,35.91,0,0,1-1.59,6.88.79.79,0,0,0,.64,1.07,4.7,4.7,0,0,0,2.55-.67Z"/><path class="cls-8" d="M456.56,84.47l-2.31.08S455.87,85.9,456.56,84.47Z"/><path class="cls-8" d="M447.1,87.15l-2.31.08S446.41,88.58,447.1,87.15Z"/><path class="cls-8" d="M466.55,82.5s-6.61-5.48-7.75-11c0,0-20.37-.81-15.49,16.45,0,0-6.89-14.42,8.67-19.94s22.66,15.62,16.74,24.58C468.68,92.49,470.65,85.93,466.55,82.5Z"/><path class="cls-8" d="M445.09,71.55a14.94,14.94,0,0,0-2.64,8.61c.37,2.17,3.49,3.2,3.49,3.2L448.57,78l.73,4.16c5.56-1.73,8.29-5.49,9.44-10.38l-4.19-5.29S446.68,69.5,445.09,71.55Z"/><path class="cls-15" d="M456.36,96.57a2,2,0,0,0,1.78-.59,2.22,2.22,0,0,0,.61-1.84"/><path class="cls-12" d="M475.34,93.32s7.18-9.27,1.56-17.18a8.8,8.8,0,0,1,3.35,8.09C479.63,88.26,478,91.52,475.34,93.32Z"/><path class="cls-12" d="M496.93,262.61h0a92.48,92.48,0,0,1-26.14,5.13c-.67-6.13-1.46-12.88-2.3-19.86C466,254,463.23,260.54,460,267.4a62.62,62.62,0,0,1-23.61-7.13c1.65-13.63,4.08-28.45,6.48-41.48a37.93,37.93,0,0,1,10.49-4.42,45,45,0,0,1,10.7-1.35,79,79,0,0,1,15.65,1.5,95.55,95.55,0,0,1,19.55,6A243.19,243.19,0,0,1,496.93,262.61Z"/><path class="cls-8" d="M449.53,179.3h41l1.12,5.5s15.05,21.7,7.42,75.82c0,0-33,4-64-3,0,0,7-55.6,14.25-73.75Z"/><path class="cls-7" d="M488.43,162.51l2.92,22.7-44.92-1.88c-.12-4.88,4.05-17.82,3.57-21.36-1.36-4.37-8.26-11-10.1-16.25-2-7.34,2.08-27.5,3.4-28.14,1.6-.78,3.6-.71,4.82-1.27,4.77-1.17,15.62-5.21,20.48-5.84.94-.09,1.87-.26,2.8-.38,0,0,18.38-.92,19.2,6.87A178.83,178.83,0,0,0,488.43,162.51Z"/><polygon class="cls-12" points="488.08 157.7 487.71 151.48 480.9 132.16 486.24 154.91 469.33 161.07 488.08 157.7"/><path class="cls-12" d="M468.51,178c.61-.08,5.94-6.12,5.94-6.12l15.26.6-.74-5.75c.45-.37-17.83.5-17.83.5l-2.63,5.93Z"/><path class="cls-7" d="M483.66,111.9c.78.11,4-1.78,9.74,5.94S505.64,155,506,159.27c.47,5.45-3,8.13-6.5,8.73-10.43,1.8-29.69,2.16-29.69,2.16v-9.24L489,156.39s-10.91-27.34-9.19-34.39S483.66,111.9,483.66,111.9Z"/><path class="cls-11" d="M475,110.07a20,20,0,0,1-14.46,16c-2.6.65-5.51-.85-7.57-2.63a11.88,11.88,0,0,1-3.91-7.14C458.12,112.6,466.31,109.41,475,110.07Z"/><path class="cls-12" d="M489,156.39s3.12-.19,4.44,1.59c0,0-.79-3.4-4.87-2.69Z"/><path class="cls-7" d="M463.61,215.68v-103H364.85v41.17c1.79.71,7.63,1.18,9.41.48,3.12-1.21,1.09-4.95,4.1-6.42,4.44-2.18,10,.89,12.3,5.39,1.8,3.49,2.14,5.32,2,8.34.17,3-.17,4.84-2,8.34-2.33,4.5-7.86,7.57-12.3,5.39-3-1.48-.57-5.13-3.68-6.34-1.78-.69-8-.31-9.83.4v46.29H409a7.64,7.64,0,0,1-.4,3c-1.16,3.25-4.47,5.18-5.89,8.32-2.09,4.62.86,10.39,5.18,12.81,3.35,1.88,5.1,2.24,8,2.06,2.9.18,4.65-.18,8-2.06,4.33-2.42,7.27-8.19,5.18-12.81-1.42-3.14-4.73-5.07-5.89-8.32a7.64,7.64,0,0,1-.4-3Z"/><path class="cls-7" d="M468.51,215.68v-103H369.75v41.17a7.56,7.56,0,0,0,5.53.19c3.11-1.21,5-4.66,8-6.13,4.44-2.18,10,.89,12.3,5.39,1.8,3.49,2.14,5.32,2,8.34.16,3-.18,4.84-2,8.34-2.33,4.5-7.86,7.57-12.3,5.39-3-1.48-4.87-4.93-8-6.14a7.56,7.56,0,0,0-5.53.2v46.29h44.16a7.45,7.45,0,0,1-.39,3c-1.17,3.25-4.48,5.18-5.9,8.32-2.09,4.62.86,10.39,5.18,12.81,3.35,1.88,5.11,2.24,8,2.06,2.9.18,4.66-.18,8-2.06,4.32-2.42,7.27-8.19,5.17-12.81-1.41-3.14-4.73-5.07-5.89-8.32a7.64,7.64,0,0,1-.4-3Z"/><g class="cls-16"><path class="cls-3" d="M468.51,215.68v-103H369.75v41.17a7.56,7.56,0,0,0,5.53.19c3.11-1.21,5-4.66,8-6.13,4.44-2.18,10,.89,12.3,5.39,1.8,3.49,2.14,5.32,2,8.34.16,3-.18,4.84-2,8.34-2.33,4.5-7.86,7.57-12.3,5.39-3-1.48-4.87-4.93-8-6.14a7.56,7.56,0,0,0-5.53.2v46.29h44.16a7.45,7.45,0,0,1-.39,3c-1.17,3.25-4.48,5.18-5.9,8.32-2.09,4.62.86,10.39,5.18,12.81,3.35,1.88,5.11,2.24,8,2.06,2.9.18,4.66-.18,8-2.06,4.32-2.42,7.27-8.19,5.17-12.81-1.41-3.14-4.73-5.07-5.89-8.32a7.64,7.64,0,0,1-.4-3Z"/></g><path class="cls-11" d="M468.51,162.73s-6.63,1.72-7.35,3.35,1.72,1.5,1.72,1.5-2.69.31-2.71,1.51c0,1.45,2.53,1.31,2.53,1.31s-2.19.35-2.14,1.42,2.95,1.17,2.95,1.17-1.49.55-1.05,1.28,6.61,1,8.43-.23,1.82-9.47,1.47-11.28-1.67-2.77-3.85-5.51v5.48Z"/><path class="cls-9" d="M462.89,167.71h0l4.67-.77a.13.13,0,0,0,.09-.16.12.12,0,0,0-.13-.11l-4.66.77a.13.13,0,0,0-.1.16C462.78,167.67,462.83,167.72,462.89,167.71Z"/><path class="cls-9" d="M462.84,170.53h0l4.54-.37a.14.14,0,0,0,.11-.15.12.12,0,0,0-.13-.12l-4.53.37a.14.14,0,0,0,0,.27Z"/><path class="cls-9" d="M463.68,173.12l3.38-.17a.12.12,0,0,0,.1-.14c0-.08-.05-.14-.12-.13l-3.38.17a.12.12,0,0,0-.1.14C463.56,173.07,463.61,173.13,463.68,173.12Z"/><path class="cls-11" d="M392.7,160s7.1,2.07,7.83,3.69-1.73,1.5-1.73,1.5,2.69.31,2.72,1.52c0,1.45-2.53,1.31-2.53,1.31s2.18.34,2.14,1.42-3,1.17-3,1.17,1.5.55,1.06,1.28-6.61,1-8.43-.24-1.82-9.47-1.47-11.27.5-1.51,2.67-4.25l.4,1.53a8,8,0,0,1,.22,1.28Z"/><path class="cls-9" d="M398.8,165.33h0l-4.67-.77a.15.15,0,0,1-.1-.15.13.13,0,0,1,.14-.12l4.66.78a.14.14,0,0,1,.1.15A.13.13,0,0,1,398.8,165.33Z"/><path class="cls-9" d="M398.85,168.14h0l-4.53-.37a.13.13,0,0,1-.11-.14.13.13,0,0,1,.12-.13l4.54.37a.14.14,0,0,1,.11.15C399,168.09,398.91,168.15,398.85,168.14Z"/><path class="cls-9" d="M398,170.74l-3.38-.18c-.06,0-.11-.07-.11-.14a.13.13,0,0,1,.13-.13l3.38.18a.11.11,0,0,1,.1.14A.12.12,0,0,1,398,170.74Z"/></g><g id="Character_2" data-name="Character 2"><polygon class="cls-11" points="247.21 389.42 257.01 390.42 264.25 364.56 249.34 362.87 247.21 389.42"/><path class="cls-8" d="M258.43,385.91h-3.5a2.47,2.47,0,0,0-2,1.08c-2,2.87-3.54,1.79-5.73-.91-1.4-.17-1.77,1.5-1.89,1.95l-2.61,9.91a1.57,1.57,0,0,0,1,1.93,1.67,1.67,0,0,0,.44.06H271.9c4.41,0,5.32-4.63,3.5-5.06-8.16-1.88-13.95-4.39-16.47-6.86C258.46,387.57,258.94,387.25,258.43,385.91Z"/><path class="cls-7" d="M266,388.73a1.55,1.55,0,0,0,.59-1.19.68.68,0,0,0-.29-.65c-1.09-.81-5.47,1.33-6,1.58a.2.2,0,0,0-.12.12.22.22,0,0,0,.12.26,15.69,15.69,0,0,0,3.28.44A3.85,3.85,0,0,0,266,388.73Zm0-1.49a.26.26,0,0,1,.11.27,1.17,1.17,0,0,1-.43.87c-1,.78-3.39.44-4.68.19C262.87,387.74,265.45,386.8,266.06,387.24Z"/><path class="cls-7" d="M260.52,388.89c1.31-.57,4.07-2.82,3.92-4,0-.25-.2-.54-.79-.63-2.4-.28-3.43,4.2-3.43,4.39a.22.22,0,0,0,.06.22h.14Zm3.05-4.27c.44.05.44.22.44.27.13.73-1.87,2.6-3.3,3.38.3-1,1.18-3.66,2.7-3.66Z"/><path class="cls-10" d="M260.86,388.72a4.2,4.2,0,0,0-3,2"/><path class="cls-10" d="M263,390.43a4.24,4.24,0,0,0-3,2"/><path class="cls-10" d="M265.74,391.86a4.22,4.22,0,0,0-3,2"/><polygon class="cls-17" points="260.43 378.23 259.54 381.4 248 379.55 248.21 376.95 260.43 378.23"/><polygon class="cls-11" points="304.27 389.42 314.07 390.42 321.32 364.56 306.4 362.87 304.27 389.42"/><path class="cls-8" d="M315.49,385.91H312a2.47,2.47,0,0,0-2,1.08c-2,2.87-3.54,1.79-5.73-.91-1.4-.17-1.77,1.5-1.89,1.95l-2.61,9.91a1.57,1.57,0,0,0,1,1.93,1.54,1.54,0,0,0,.43.06H329c4.41,0,5.32-4.63,3.51-5.06-8.17-1.88-14-4.39-16.48-6.86C315.52,387.57,316,387.25,315.49,385.91Z"/><path class="cls-7" d="M323.09,388.73a1.55,1.55,0,0,0,.59-1.19.68.68,0,0,0-.29-.65c-1.09-.81-5.47,1.33-6,1.58a.2.2,0,0,0-.12.12.22.22,0,0,0,.12.26,15.78,15.78,0,0,0,3.28.44A3.85,3.85,0,0,0,323.09,388.73Zm0-1.49a.26.26,0,0,1,.11.27,1.17,1.17,0,0,1-.43.87c-1,.78-3.39.44-4.68.19C319.93,387.74,322.51,386.8,323.12,387.24Z"/><path class="cls-7" d="M317.58,388.89c1.31-.57,4.07-2.82,3.92-4,0-.25-.2-.54-.79-.63-2.4-.28-3.43,4.2-3.43,4.39a.22.22,0,0,0,.06.22h.14Zm3.05-4.27c.45.05.45.22.45.27.12.73-1.88,2.6-3.31,3.38.3-1,1.18-3.66,2.7-3.66Z"/><path class="cls-10" d="M317.92,388.72a4.22,4.22,0,0,0-3,2"/><path class="cls-10" d="M320.1,390.43a4.24,4.24,0,0,0-3,2"/><path class="cls-10" d="M322.8,391.86a4.22,4.22,0,0,0-3,2"/><polygon class="cls-17" points="317.49 378.23 316.6 381.4 305.06 379.55 305.27 376.95 317.49 378.23"/><path class="cls-7" d="M325.22,194.58s8.13,37.38,12,69.94c1.18,9.92,1.4,23.19-.68,33l-15.66,81.1-19.71-2.06c3.1-35,7.41-78.11,8.65-96.47-4.33-21.51-13.57-47.54-22.65-73.44Z"/><g class="cls-18"><path d="M325.22,194.58s8.13,37.38,12,69.94c1.18,9.92,1.4,23.19-.68,33l-15.66,81.1-19.71-2.06c3.1-35,7.41-78.11,8.65-96.47-4.33-21.51-13.57-47.54-22.65-73.44Z"/></g><path class="cls-7" d="M260.47,286.58c.45-2,1.16-6.13,2-11.55l-.08,0c.64-7.16,1.82-40.4,4-61.61,1.67-13.5,5-22.64,8.32-27.12.17-.23.33-.43.48-.62.55-.72.89-1.12.89-1.12.63.17,1.26.32,1.89.46l.7.16A96.12,96.12,0,0,0,323,183.84c2.17,5.58,3.79,17.48,5.37,29.81-2.46,2.82-13.28,6.47-25.68,8.89l-3.54,16.67c-1.86,10.33-4.25,20.47-6.28,29.59l-2.12,10c-.13.65-.26,1.3-.37,1.94-1.08,5.75-26.69,98.33-26.69,98.33l-16.69-1S254.44,314,260.47,286.58Z"/><path class="cls-12" d="M260.47,286.58c.45-2,1.16-6.13,2-11.55l-.08,0c.64-7.16,1.82-40.4,4-61.61,1.67-13.5,5-22.64,8.32-27.12.17-.23.33-.43.48-.62.55-.72.89-1.12.89-1.12.63.17,1.26.32,1.89.46l.7.16A96.12,96.12,0,0,0,323,183.84c2.17,5.58,3.79,17.48,5.37,29.81-2.46,2.82-13.28,6.47-25.68,8.89l-3.54,16.67c-1.86,10.33-4.25,20.47-6.28,29.59l-2.12,10c-.13.65-.26,1.3-.37,1.94-1.08,5.75-26.69,98.33-26.69,98.33l-16.69-1S254.44,314,260.47,286.58Z"/><path class="cls-12" d="M298.9,240.75c-.06.34,7.65-28.84,7.65-28.84S313,238,303.16,254.26Z"/><path class="cls-11" d="M282.32,109.09s3.92,3.14,9,7.67a18.55,18.55,0,0,0,3.43,2.43c3.31,1.83,6.32,2.88,7.14,1.22a5.69,5.69,0,0,0,.42-1.18c.69-2.78.41-6.69-1.75-8.47-2.43-2-3.6-3.75-3.16-6.48a21.1,21.1,0,0,1,1.39-4.7l-1.91-2.33-10-10.53C287.09,93.75,287.6,105.27,282.32,109.09Z"/><path class="cls-9" d="M297.28,104.88c-2.75-1.7-5.77-4.66-5.41-8a16.64,16.64,0,0,1,.78-3.63l5.6,7.71A20.48,20.48,0,0,0,297.28,104.88Z"/><path class="cls-11" d="M284,75.43c.94,10.72,1.13,15.26,6.43,20.88,8,8.46,20.27,5.61,22.39-5,1.9-9.56,0-25.48-10.06-30C292.81,56.88,283.06,64.71,284,75.43Z"/><path class="cls-8" d="M296.82,78.81c.05,1,.64,1.83,1.32,1.84s1.18-.78,1.13-1.79S298.62,77,297.94,77,296.76,77.81,296.82,78.81Z"/><path class="cls-8" d="M307.48,78.66c0,1,.64,1.77,1.32,1.79s1.17-.77,1.12-1.74-.65-1.77-1.32-1.79S307.42,77.69,307.48,78.66Z"/><path class="cls-8" d="M295.18,75a.48.48,0,0,0,.37-.12,3.62,3.62,0,0,1,3.39-1,.46.46,0,0,0,.59-.36.58.58,0,0,0-.38-.66,4.52,4.52,0,0,0-4.3,1.2.56.56,0,0,0,0,.75A.57.57,0,0,0,295.18,75Z"/><path class="cls-8" d="M310.77,74.44a.46.46,0,0,0,.36-.06.54.54,0,0,0,.13-.73A5.26,5.26,0,0,0,307.33,71a.46.46,0,0,0-.48.5.56.56,0,0,0,.5.56,4.18,4.18,0,0,1,3.09,2.17A.58.58,0,0,0,310.77,74.44Z"/><path class="cls-8" d="M288.38,82.15s3.18-5,1.87-14.73a3.07,3.07,0,0,1,2.33-3.49C297,63,303,57.2,310.19,68.78c0,0-3.45-13.87-23.67-8.28-18,5-5.67,20.86-3.82,22.49S288.38,82.15,288.38,82.15Z"/><path class="cls-11" d="M280.89,84.17a8.37,8.37,0,0,0,5,4c2.72.71,4.13-3.85,3.2-6.7a5.45,5.45,0,0,0-6.16-3.69C280.31,78.38,279.5,81.65,280.89,84.17Z"/><path class="cls-8" d="M304.88,89.13A31.62,31.62,0,0,0,303,93.07c-.24,0-.49-.1-.73-.17-3.27-.8-4.54-2.29-4.95-3.71a4.61,4.61,0,0,1-.06-2.14,4.32,4.32,0,0,1,.36-1.16c1.49,1.5,4.49,2.49,6.11,3C304.45,89,304.88,89.13,304.88,89.13Z"/><path class="cls-3" d="M303.77,88.84,303.2,90c-3.08-.76-5.16-1.73-5.9-2.94a4.32,4.32,0,0,1,.36-1.16C299.15,87.39,302.15,88.38,303.77,88.84Z"/><path class="cls-19" d="M302.31,92.9c-3.27-.8-4.54-2.29-4.95-3.71a10.65,10.65,0,0,1,3.47,1.64A4.15,4.15,0,0,1,302.31,92.9Z"/><path class="cls-14" d="M304.71,78.36a36.67,36.67,0,0,0,3.43,6.52.84.84,0,0,1-.38,1.26,4.86,4.86,0,0,1-2.75,0Z"/><path class="cls-8" d="M297.74,77l2.36-.59S298.81,78.25,297.74,77Z"/><path class="cls-8" d="M308.36,77l2.36-.58S309.43,78.2,308.36,77Z"/><path class="cls-8" d="M312,73.32s6.23-7.68,2.07-14c-1.56-2.38-4.43-2.73-7-3.9-5.84-2.68-10.58-3.22-18,4.39-7.76,7.92-9.16,10.59-.6,20.34,0,0-.93-1.27,2.23-4.17s6.66-5.49,5-8.3a4.66,4.66,0,0,1,2.82,3.66L303.11,70a9.48,9.48,0,0,0-1.43-3.72,8.46,8.46,0,0,1,3.18,3.62l4,.79s-.59-3.82-1.72-5.2C307.14,65.5,310.8,69.43,312,73.32Z"/><path class="cls-13" d="M287,83.85a4.27,4.27,0,0,0-1.24-2.68A4,4,0,0,0,283.12,80"/><path class="cls-8" d="M335.91,172.79a14.88,14.88,0,0,1-1.64-1.54c-.44-.48-.74-1.09-.64-1.09s-.05-.14-.07-.2l-.19-.45-.45-1.2c-.31-.86-.6-1.8-.89-2.75-.61-1.9-1.18-3.87-1.73-5.85-1.13-4-2.2-8-3.29-12.06l-2-8.48c-.29-1.37-.73-3.38-1.33-5.66h0c-1.62-6.23-4.33-14.53-7.87-17.84-5.49-4.38-9,1-11.26,6.64-2.17,5.39,3.18,20.13,3.18,20.13l6.53-.49c.83,3.13,1.69,6.25,2.55,9.43,1.11,4.16,2.43,8.23,3.76,12.31.67,2,1.37,4.09,2.14,6.15.45,1,.86,2.08,1.33,3.17.22.54.47,1.11.75,1.68l.49.95a10.78,10.78,0,0,0,.69,1.14,11,11,0,0,0,3.5,3.08,14.62,14.62,0,0,0,3.23,1.4,18.82,18.82,0,0,0,6.23.78l1.18-5.94C338.72,175,337.17,173.86,335.91,172.79Z"/><path class="cls-20" d="M335.91,172.79a14.88,14.88,0,0,1-1.64-1.54c-.44-.48-.74-1.09-.64-1.09s-.05-.14-.07-.2l-.19-.45-.45-1.2c-.31-.86-.6-1.8-.89-2.75-.61-1.9-1.18-3.87-1.73-5.85-1.13-4-2.2-8-3.29-12.06l-2-8.48c-.29-1.37-.73-3.38-1.33-5.66h0c-1.62-6.23-4.33-14.53-7.87-17.84-5.49-4.38-9,1-11.26,6.64-2.17,5.39,3.18,20.13,3.18,20.13l6.53-.49c.83,3.13,1.69,6.25,2.55,9.43,1.11,4.16,2.43,8.23,3.76,12.31.67,2,1.37,4.09,2.14,6.15.45,1,.86,2.08,1.33,3.17.22.54.47,1.11.75,1.68l.49.95a10.78,10.78,0,0,0,.69,1.14,11,11,0,0,0,3.5,3.08,14.62,14.62,0,0,0,3.23,1.4,18.82,18.82,0,0,0,6.23.78l1.18-5.94C338.72,175,337.17,173.86,335.91,172.79Z"/><g class="cls-16"><path d="M317,125.23a22.56,22.56,0,0,1,2.17,5.34c.69,2.26,1.47,14.48-2.48,18.08v-8.46C316.86,135,316.88,130.42,317,125.23Z"/></g><path class="cls-8" d="M268.35,140.68l-6.13-21.77c3.88-6,23.06-10.66,23.06-10.66l9.83,3.59,2.81-2.87s4.85,1.13,9,2.54c5.55,1.89,8.56,3.4,9.88,6.61,0,0,2.32,7.11.92,21.76-.38,4,.06,25,1.13,31.9l6.55,21.56c-23.09,18.74-55.42,1.24-55.42,1.24,1-3.3,4.5-13.46,5-16.69-.34-4.13.13-10.49-1.54-17.71C273.09,158.79,268.91,142,268.35,140.68Z"/><path class="cls-20" d="M268.35,140.68l-6.13-21.77c3.88-6,23.06-10.66,23.06-10.66l9.83,3.59,2.81-2.87s4.85,1.13,9,2.54c5.55,1.89,8.56,3.4,9.88,6.61,0,0,2.32,7.11.92,21.76-.38,4,.06,25,1.13,31.9l6.55,21.56c-23.09,18.74-55.42,1.24-55.42,1.24,1-3.3,4.5-13.46,5-16.69-.34-4.13.13-10.49-1.54-17.71C273.09,158.79,268.91,142,268.35,140.68Z"/><path class="cls-7" d="M338.5,164.12a18.92,18.92,0,0,1,16.08-17.51l-1.77,3.08,3.38-2.09-15.51,20.26Z"/><path class="cls-21" d="M338.5,164.12a18.92,18.92,0,0,1,16.08-17.51l-1.77,3.08,3.38-2.09-15.51,20.26Z"/><path class="cls-7" d="M314.21,147.49l5.33-.17,25.51,9-23.25,37-22.89-6a2.56,2.56,0,0,1-1.7-3.14,2.42,2.42,0,0,1,.23-.58l9.24-17.41a1.21,1.21,0,0,0,0-1.11l-1.25-2.32a1.57,1.57,0,0,1,0-1.54l6.2-12.11A3.15,3.15,0,0,1,314.21,147.49Z"/><polygon class="cls-7" points="345.06 156.34 359.58 146.61 335.69 183.59 321.8 193.34 345.06 156.34"/><polygon class="cls-12" points="345.06 156.34 359.58 146.61 335.69 183.59 321.8 193.34 345.06 156.34"/><path class="cls-11" d="M342.2,173.53s-5.64-1.54-6.88-.53.45,2,.45,2-1.94-.91-2.52.06c-.7,1.16,1.09,2.16,1.09,2.16s-1.63-.67-2.1.23,1.44,2.23,1.44,2.23-1.26-.2-1.31.58,4,3.65,5.75,3.45,5.63-6.92,6.23-8.54.54-2.88-.6-4l-1.55,2.4Z"/><path class="cls-9" d="M335.71,175.08h0l3.48,1.39c.05,0,.11,0,.14-.08s0-.14,0-.15l-3.48-1.39s-.1,0-.13.08S335.67,175.06,335.71,175.08Z"/><path class="cls-9" d="M334.37,177.35h0l3.21,1.66c.05,0,.11,0,.14-.07a.12.12,0,0,0,0-.16l-3.2-1.65c-.05,0-.11,0-.14.07S334.33,177.33,334.37,177.35Z"/><path class="cls-9" d="M333.73,179.82l2.34,1.32s.1,0,.14-.07a.12.12,0,0,0,0-.16l-2.34-1.31s-.1,0-.14.07S333.68,179.8,333.73,179.82Z"/><polygon class="cls-8" points="301.54 109.89 297.28 105.59 295.11 111.84 285.64 103.98 280.84 109.47 292.73 118.1 295.11 112.62 301.54 117.64 301.54 109.89"/><path class="cls-17" d="M301.54,109.89c.3.48,0,7.75,0,7.75l-6.43-5-2.38,5.48-11.42-8.21L293,120.5l2.11-6.44,7.17,6.44Z"/><path class="cls-17" d="M307.62,143.6l-32.74,32.88V170s29.47-28.13,29.83-28.17A17.45,17.45,0,0,1,307.62,143.6Z"/><polygon class="cls-17" points="276.87 146.21 273.32 130.96 272.62 148.66 276.87 146.21"/><path class="cls-7" d="M282.74,87.94a2,2,0,1,0,2-2A2,2,0,0,0,282.74,87.94Z"/><path class="cls-8" d="M262.22,118.91s-4.42,4.49-5.91,19.81c-1.07,11-3.78,34.71,4.42,37.76s44-32.59,44-32.59L298.9,133.5l-26.28,15.15s2.68-25.11-2-27.41A21.52,21.52,0,0,0,262.22,118.91Z"/><path class="cls-20" d="M262.22,118.91s-4.42,4.49-5.91,19.81c-1.07,11-3.78,34.71,4.42,37.76s44-32.59,44-32.59L298.9,133.5l-26.28,15.15s2.68-25.11-2-27.41A21.52,21.52,0,0,0,262.22,118.91Z"/><path class="cls-11" d="M301.15,132.73s3.45-7.2,5.09-7.51a5.5,5.5,0,0,1,3,.25s11.15-6.85,11.89-5c.4,1-2.07,3.13-7.39,6.29,0,0,3.06,1.17,1.83,3a2.4,2.4,0,0,1,1.05,3.41s1,2.06-.27,3.38-7.43,5-11,5.49-5.62-6.64-5.62-6.64Z"/></g><g id="Puzzle"><path class="cls-7" d="M338.83,338.45c3,1.48,4.86,4.93,8,6.14a7.55,7.55,0,0,0,5.45-.16V298.1H309.69a7.64,7.64,0,0,1,.4-3c1.16-3.25,4.48-5.18,5.89-8.32,2.09-4.62-.85-10.39-5.17-12.81-3.36-1.88-5.11-2.24-8-2.06-2.89-.18-4.65.18-8,2.06-4.32,2.42-7.27,8.19-5.18,12.81,1.42,3.14,4.73,5.07,5.89,8.32a7.28,7.28,0,0,1,.4,3H253.35v103h98.91v-41.2a7.5,7.5,0,0,0-5.45-.16c-3.12,1.21-5,4.63-8,6.13-4,2-10-.9-12.3-5.39-1.82-3.48-2.15-5.32-2-8.34-.17-3,.17-4.84,2-8.34C328.85,339.34,334.39,336.27,338.83,338.45Z"/><path class="cls-22" d="M338.83,338.45c3,1.48,4.86,4.93,8,6.14a7.55,7.55,0,0,0,5.45-.16V298.1H309.69a7.64,7.64,0,0,1,.4-3c1.16-3.25,4.48-5.18,5.89-8.32,2.09-4.62-.85-10.39-5.17-12.81-3.36-1.88-5.11-2.24-8-2.06-2.89-.18-4.65.18-8,2.06-4.32,2.42-7.27,8.19-5.18,12.81,1.42,3.14,4.73,5.07,5.89,8.32a7.28,7.28,0,0,1,.4,3H253.35v103h98.91v-41.2a7.5,7.5,0,0,0-5.45-.16c-3.12,1.21-5,4.63-8,6.13-4,2-10-.9-12.3-5.39-1.82-3.48-2.15-5.32-2-8.34-.17-3,.17-4.84,2-8.34C328.85,339.34,334.39,336.27,338.83,338.45Z"/><path class="cls-7" d="M343.68,338.45c3,1.48,4.86,4.93,8,6.14a7.55,7.55,0,0,0,5.45-.16V298.1H314.54a7.64,7.64,0,0,1,.4-3c1.16-3.25,4.48-5.18,5.89-8.32,2.09-4.62-.85-10.39-5.17-12.81-3.36-1.88-5.11-2.24-8-2.06-2.89-.18-4.65.18-8,2.06-4.32,2.42-7.27,8.19-5.18,12.81,1.42,3.14,4.73,5.07,5.89,8.32a7.28,7.28,0,0,1,.4,3H258.2v103h98.91v-41.2a7.5,7.5,0,0,0-5.45-.16c-3.12,1.21-5,4.63-8,6.13-4,2-10-.9-12.3-5.39-1.82-3.48-2.15-5.32-2-8.34-.17-3,.17-4.84,2-8.34C333.7,339.34,339.24,336.27,343.68,338.45Z"/><path class="cls-22" d="M340.68,366.63s3.43,6.39,9.31,5.86,7.12-3.2,7.12-3.2L357,360.5l-13.12,5.23A4,4,0,0,1,340.68,366.63Z"/></g><g id="Character_4" data-name="Character 4"><path class="cls-7" d="M462.48,312.24l33.8-13.53L515.8,279c.54-.66,6.2-10.82,6.2-10.82l9.58,21.37S507.76,314.48,499,317.39c-7.05,2.34-32,8.71-32,8.71Z"/><path class="cls-22" d="M483.2,321.88s4.08-16.65,13.19-20.11,20.89,2,20.55,2.2-10.2,9.81-10.54,9.92-12.79,4.7-19.28,6.93Z"/><path class="cls-8" d="M421.82,298.63a7.61,7.61,0,0,0,.4,3c1.16,3.25,4.48,5.18,5.89,8.32,2.09,4.63-.85,10.39-5.17,12.81-3.36,1.88-5.11,2.24-8,2.06-2.89.18-4.65-.18-8-2.06-4.32-2.42-7.27-8.18-5.18-12.81,1.42-3.14,4.73-5.07,5.89-8.32a7.43,7.43,0,0,0,.4-3H364v46.29a7.56,7.56,0,0,1-5.53.2c-3.12-1.21-5-4.66-8-6.14-4.44-2.18-10,.89-12.3,5.39-1.81,3.5-2.15,5.33-2,8.34-.17,3,.17,4.85,2,8.34,2.33,4.5,7.86,7.57,12.3,5.39,3-1.47,4.86-4.92,8-6.13a7.56,7.56,0,0,1,5.53.19v41.17l98.56.46v-103Z"/><g class="cls-23"><path d="M421.82,298.63a7.61,7.61,0,0,0,.4,3c1.16,3.25,4.48,5.18,5.89,8.32,2.09,4.63-.85,10.39-5.17,12.81-3.36,1.88-5.11,2.24-8,2.06-2.89.18-4.65-.18-8-2.06-4.32-2.42-7.27-8.18-5.18-12.81,1.42-3.14,4.73-5.07,5.89-8.32a7.43,7.43,0,0,0,.4-3H364v46.29a7.56,7.56,0,0,1-5.53.2c-3.12-1.21-5-4.66-8-6.14-4.44-2.18-10,.89-12.3,5.39-1.81,3.5-2.15,5.33-2,8.34-.17,3,.17,4.85,2,8.34,2.33,4.5,7.86,7.57,12.3,5.39,3-1.47,4.86-4.92,8-6.13a7.56,7.56,0,0,1,5.53.19v41.17l98.56.46v-103Z"/></g><path class="cls-8" d="M426.19,298.63a7.42,7.42,0,0,0,.39,3c1.17,3.25,4.48,5.18,5.9,8.32,2.09,4.63-.86,10.39-5.18,12.81-3.35,1.88-5.11,2.24-8,2.06-2.9.18-4.66-.18-8-2.06-4.32-2.42-7.27-8.18-5.18-12.81,1.42-3.14,4.74-5.07,5.9-8.32a7.61,7.61,0,0,0,.4-3H368.32v46.29a7.56,7.56,0,0,1-5.53.2c-3.11-1.21-5-4.66-8-6.14-4.44-2.18-10,.89-12.3,5.39-1.81,3.5-2.14,5.33-2,8.34-.16,3,.17,4.85,2,8.34,2.33,4.5,7.86,7.57,12.3,5.39,3-1.47,4.87-4.92,8-6.13a7.56,7.56,0,0,1,5.53.19v41.17l98.56.46v-103Z"/><path class="cls-24" d="M495.61,368.09l15.5-1c-2.48,14.23-5,23.46-3.94,30.76l-6.25,4.36-5.79-5.93A168.89,168.89,0,0,1,495.61,368.09Z"/><path class="cls-7" d="M494.2,386.31l5.64.07c2.72,4.92,4.61,3.76,7.5.29,1.63-.18,2.05,1.78,2.18,2.31l2.93,11.64a1.84,1.84,0,0,1-1.23,2.24,1.79,1.79,0,0,1-.51.07l-13.52-.17-18.94-.23c-5.16-.06-6.17-5.5-4-6,9.58-2.08,16.39-4.93,19.37-7.79C494.15,388.26,493.59,387.88,494.2,386.31Z"/><path class="cls-15" d="M491.32,389.57a4.94,4.94,0,0,1,3.45,2.38"/><path class="cls-15" d="M488.75,391.54a5,5,0,0,1,3.46,2.37"/><path class="cls-15" d="M485.57,393.18a5,5,0,0,1,3.45,2.38"/><path class="cls-25" d="M511.22,402.86a1.79,1.79,0,0,1-.51.07l-13.52-.17-18.94-.23a4.91,4.91,0,0,1-4.88-3.18c.79,0,38.41.78,38.91.61l.2.87A1.8,1.8,0,0,1,511.22,402.86Z"/><path class="cls-8" d="M555,325.25s-42.34-22.77-50.58-23.42-16.12,4-17.7,21.78,1.58,63.52,1.58,63.52l22.83.41,2.83-53s35.38,26.92,36.43,26.65,14.85-.93,14.85-.93Z"/><path class="cls-26" d="M555,325.25s-42.34-22.77-50.58-23.42-16.12,4-17.7,21.78,1.58,63.52,1.58,63.52l22.83.41,2.83-53s35.38,26.92,36.43,26.65,14.85-.93,14.85-.93Z"/><path class="cls-22" d="M512.65,359.33s-18.66,6.81-18.86,22.84,16.26,13,16.26,13Z"/><path class="cls-24" d="M571.19,401.1,567,385.2c14.67-1.65,24.47,2.11,31.3-1.24l6.14,5.32-4.06,7.93S589.55,401,571.19,401.1Z"/><path class="cls-7" d="M590.88,401.21l-1.63-6c4-4.38,2.29-6-2-8-.66-1.69,1.13-2.72,1.6-3l10.51-6.62a1.83,1.83,0,0,1,2.57.63,2,2,0,0,1,.21.52c1.44,5.3,2.12,7.81,3.92,14.41l5.48,20.18c1.49,5.51-3.52,8.22-4.63,6.09-4.93-9.55-9.77-15.92-13.47-18.23C592.81,400.68,592.6,401.39,590.88,401.21Z"/><path class="cls-15" d="M594.94,403.29a5.66,5.66,0,0,1,1.28-4.38"/><path class="cls-15" d="M597.63,405.43a5.69,5.69,0,0,1,1.29-4.39"/><path class="cls-15" d="M600.2,408.32a5.66,5.66,0,0,1,1.29-4.39"/><path class="cls-25" d="M602,378.15a2,2,0,0,1,.21.52c1.44,5.3,2.12,7.81,3.92,14.41l5.48,20.18c.81,3-.29,5.13-1.65,6.15-.22-.84-10.81-41-11.12-41.51l.78-.48A1.83,1.83,0,0,1,602,378.15Z"/><path class="cls-8" d="M601.38,333.94l1.84,9.61s4.71,19.07-1.89,28.65A26.32,26.32,0,0,1,585.71,383l1.91,18.39-1.91,1.24s-12.18,0-37.11-1.18c-23.69-1.13-44-2.31-48.24-10s-5.18-11.38,1.7-20.52c6.21-8.25,53.49-20.42,55.13-20.91l-.66-4.2-.77-3Z"/><path class="cls-26" d="M601.38,333.94l1.84,9.61s4.71,19.07-1.89,28.65A26.32,26.32,0,0,1,585.71,383l1.91,18.39-1.91,1.24s-12.18,0-37.11-1.18c-23.69-1.13-44-2.31-48.24-10s-5.18-11.38,1.7-20.52c6.21-8.25,53.49-20.42,55.13-20.91l-.66-4.2-.77-3Z"/><path class="cls-22" d="M585.71,383c-1.46.4-52.82-1.33-52.82-1.33s15.18,2.71,26.41,3.7S585.71,383,585.71,383Z"/><path class="cls-22" d="M557.19,350l29.58-5.38S565.45,344.29,557.19,350Z"/><path class="cls-24" d="M481.8,328.21s-2.47-4-6.14-4.72-6.41-2.4-9.18-2.77-.26,2.55,1.38,3.83,3.48,2.73,2.37,3.86-14.09,4.55-15.47,6.3.89,1.87.89,1.87-3.13.92-3.12,2.32c0,.36.57,1.19,2.06,1,3.35-.42,10.34-1.68,10.34-1.68-.41.07-8.92,2.26-10.15,2.77-1.62.65-2.06,1.82-1.66,2.78.56,1.37,11.21-1,11.72-.75,0,0-6.17,1.14-6.76,3s3.33,1.32,6.71.2c3.1-1,9.44-2.2,12.49-3.56,3.76-1.68,5.92-3.69,6-7.68A14,14,0,0,0,481.8,328.21Z"/><polygon class="cls-24" points="477.74 328.13 487.21 324.18 490.48 334.85 479.37 338.98 477.74 328.13"/><path class="cls-24" d="M546.44,254.31s-2.58-6.05-2-18c0,0-.63-.13-.63-.14.07-1.68.19-3.24.33-4.6,0,0,0,0,0,0l-12.53,13.13c1.17,3.5,1.52,10.73,1.46,13.84,0,0-.64,5.75,6.17,4.3C544.19,261.7,546.44,254.31,546.44,254.31Z"/><path class="cls-9" d="M532.48,249.72l8-4.09c-.14,2.93-1.72,6.76-7.55,8.5A29.27,29.27,0,0,0,532.48,249.72Z"/><path class="cls-24" d="M542.52,224c1.24,10,2.13,15.55-1.73,21.52-5.8,9-18,6.86-22.11-2.54-3.67-8.46-5.08-23.33,3.48-29S541.28,214.05,542.52,224Z"/><path class="cls-8" d="M538.83,210c-4.42-5.4-12.67-.67-15.8,2.83-.47.53,8,3,7.51,2.94l2.68,2.31c.34-.15,1.06,3.27,1.66,6.24a15.55,15.55,0,0,0,3.63,7.27,38,38,0,0,0,5.87,5.4c3-2.33,2.08-8.36,2.46-12.13C547.41,219.24,547.28,208.73,538.83,210Z"/><path class="cls-24" d="M547.77,231.47a9.5,9.5,0,0,1-3.45,6.32c-2.55,2-4.19-1-4.5-4.13-.27-2.84-.12-6.4,2.93-7.18S548.09,228.4,547.77,231.47Z"/><path class="cls-8" d="M529.51,229.57c.19,1-.17,1.92-.81,2s-1.3-.59-1.48-1.6.17-1.92.81-2S529.33,228.56,529.51,229.57Z"/><path class="cls-8" d="M520.07,231.67c.18,1-.18,1.92-.82,2s-1.29-.6-1.48-1.6.18-1.92.81-2.05S519.88,230.66,520.07,231.67Z"/><path class="cls-27" d="M523.05,230.49s-2.14,5.62-2.74,7.86c1.58,1,3.79,0,3.79,0Z"/><path class="cls-8" d="M531,224.35a.44.44,0,0,1-.47,0,3.65,3.65,0,0,0-3.34-.12.44.44,0,0,1-.63-.17.49.49,0,0,1,.17-.66,4.5,4.5,0,0,1,4.23.1.51.51,0,0,1,.2.65A.46.46,0,0,1,531,224.35Z"/><path class="cls-28" d="M527.86,240.87a5.77,5.77,0,0,0,3.63-2.82"/><path class="cls-13" d="M545.1,229.19a1.66,1.66,0,0,0-1.93-.27,3.1,3.1,0,0,0-1.39,1.55,5.35,5.35,0,0,0-.45,2.53"/><path class="cls-8" d="M515.09,228.26a.43.43,0,0,1-.25-.09.5.5,0,0,1-.12-.67,4.49,4.49,0,0,1,3.66-2.13.49.49,0,0,1,.45.5.47.47,0,0,1-.47.46,3.53,3.53,0,0,0-2.88,1.72A.46.46,0,0,1,515.09,228.26Z"/><path class="cls-8" d="M538.83,210a16,16,0,0,0-16.06-5.08c-8.19,2-12.47,8.26-12.63,14.23a12.59,12.59,0,0,0,1.13,5.82,1.17,1.17,0,0,0,2.2-.23c.09-.31.2-.61.32-.91a1.28,1.28,0,0,0,.11.2,1.17,1.17,0,0,0,2.2-.55,6.33,6.33,0,0,1,.13-1.15l0,0a1.16,1.16,0,0,0,2.13-.42c1-4.64,6.39-8.12,11.3-6.05l3.54,2.19C537.27,215.61,538.83,210,538.83,210Z"/><polygon class="cls-22" points="554.12 343.14 553.56 347.04 537.04 352.22 540.85 354.76 557.19 350.03 557.87 342.45 554.12 343.14"/><path class="cls-7" d="M566.45,255.54c-7.41-4.95-20.48-2.6-20.48-2.6l-24,15.24,16.39,40.13s6.84,17.07,10.53,28.44c.91,2.82,2.66,6.75,5.49,6.36l45.53-8.57a4,4,0,0,0,3-5C598.57,313,573.09,260,566.45,255.54Z"/><path class="cls-22" d="M570.73,277.86a115.1,115.1,0,0,1-20.1,26.79,51.65,51.65,0,0,0-8.77,12.3l-3.21-8.55Z"/><path class="cls-7" d="M548.16,266.84l-31,40.31-36.44,17.24,3.63,15.71s29.55-8.31,41.42-16,31.45-29.27,31.45-29.27,17.07-14.27,16.26-25.82S556.38,254.75,548.16,266.84Z"/><path class="cls-7" d="M531.31,262.26s1.16-6.16,1.72-5.92,6.1,3.72,6.1,3.72l6.21-9.68,3.72,2.57-8.57,18.51Z"/><polygon class="cls-22" points="528.59 288.1 521.43 277.86 527.22 293.89 530.03 290.77 549.79 264.74 528.59 288.1"/><path class="cls-22" d="M531.31,262.26c.32.11,5.46,3.72,5.18,3.78s2.16-4.32,2.16-4.32l5.45,2.16,4.47-11.27-4.4,13L539,263l-2.52,4.76Z"/></g><g id="Character_1" data-name="Character 1"><path class="cls-8" d="M177.66,185.61a7.61,7.61,0,0,0-.4-3c-1.16-3.25-4.48-5.18-5.89-8.32-2.09-4.63.85-10.39,5.17-12.81,3.35-1.88,5.11-2.24,8-2.07,2.89-.17,4.65.19,8,2.07,4.32,2.42,7.27,8.18,5.18,12.81-1.42,3.14-4.73,5.07-5.9,8.32a7.42,7.42,0,0,0-.39,3h44.08v-46.3a7.61,7.61,0,0,1,5.53-.19c3.12,1.21,5,4.66,8,6.14,4.44,2.18,10-.89,12.3-5.4,1.81-3.49,2.15-5.32,2-8.33.17-3-.17-4.85-2-8.34-2.33-4.5-7.86-7.57-12.3-5.39-3,1.47-4.86,4.92-8,6.13a7.56,7.56,0,0,1-5.53-.19V82.57L137,82.11v103Z"/><g class="cls-23"><path d="M177.66,185.61a7.61,7.61,0,0,0-.4-3c-1.16-3.25-4.48-5.18-5.89-8.32-2.09-4.63.85-10.39,5.17-12.81,3.35-1.88,5.11-2.24,8-2.07,2.89-.17,4.65.19,8,2.07,4.32,2.42,7.27,8.18,5.18,12.81-1.42,3.14-4.73,5.07-5.9,8.32a7.42,7.42,0,0,0-.39,3h44.08v-46.3a7.61,7.61,0,0,1,5.53-.19c3.12,1.21,5,4.66,8,6.14,4.44,2.18,10-.89,12.3-5.4,1.81-3.49,2.15-5.32,2-8.33.17-3-.17-4.85-2-8.34-2.33-4.5-7.86-7.57-12.3-5.39-3,1.47-4.86,4.92-8,6.13a7.56,7.56,0,0,1-5.53-.19V82.57L137,82.11v103Z"/></g><path class="cls-8" d="M180.64,185.61a7.42,7.42,0,0,0-.39-3c-1.17-3.25-4.48-5.18-5.9-8.32-2.09-4.63.86-10.39,5.18-12.81,3.35-1.88,5.11-2.24,8-2.07,2.9-.17,4.66.19,8,2.07,4.32,2.42,7.27,8.18,5.17,12.81-1.41,3.14-4.73,5.07-5.89,8.32a7.61,7.61,0,0,0-.4,3h44.09v-46.3a7.61,7.61,0,0,1,5.53-.19c3.11,1.21,5,4.66,8,6.14,4.44,2.18,10-.89,12.3-5.4,1.8-3.49,2.14-5.32,2-8.33.16-3-.18-4.85-2-8.34-2.33-4.5-7.86-7.57-12.3-5.39-3,1.47-4.87,4.92-8,6.13a7.56,7.56,0,0,1-5.53-.19V82.57L140,82.11v103Z"/><path class="cls-29" d="M115.11,130.46s-7.2,26.56-2.59,31.18,20.71,1.55,19.89,1.2,4.11-32.29,4.44-31.13S115.11,130.46,115.11,130.46Z"/><path class="cls-29" d="M124.07,370.31l0,23,10.27.83,3.61-21.64C133.23,369,128.6,368.16,124.07,370.31Z"/><path class="cls-8" d="M124,391c-1,3-1.08,15.48-1.08,15.48l21.78,0c1.29-4.5-.71-7.57-3.25-8-1.09-.17-2.38-1.44-3.31-2.54,0-.14-1.34-7.06-2.16-7.39,0,0-.57-.72-1.05,0a12.23,12.23,0,0,0-.9,3.05C130.58,386.84,127.25,387.48,124,391Z"/><path class="cls-3" d="M123.69,394.56a7,7,0,0,1,7.24,1.07c.38.29.73-.4.36-.7a7.63,7.63,0,0,0-7.79-1.14c-.43.17-.24.95.19.77Z"/><path class="cls-3" d="M144.58,404.64h0l-21.45,0a.4.4,0,0,1,0-.8h0l21.45,0a.4.4,0,0,1,0,.8Z"/><path class="cls-29" d="M168.38,367.3l0,26,9.88.85,4.87-24.34C179.13,366.49,174.52,364.86,168.38,367.3Z"/><path class="cls-8" d="M167.9,391c-1,3-1.07,15.49-1.07,15.49l25,0c1.29-4.5-1.41-7.17-4-7.58-1.09-.17-4.91-1.84-5.85-2.95,0-.14-1.34-7.05-2.16-7.38,0,0-.57-.72-1,0a12.73,12.73,0,0,0-.9,3.06C174.53,386.9,171.2,387.53,167.9,391Z"/><path class="cls-3" d="M167.64,394.61a7,7,0,0,1,7.24,1.07c.38.3.74-.4.36-.69a7.63,7.63,0,0,0-7.79-1.15c-.43.18-.24,1,.19.77Z"/><path class="cls-3" d="M191.84,404.7h0l-24.76,0a.41.41,0,0,1,0-.81h0l24.76,0a.38.38,0,0,1,.36.4A.38.38,0,0,1,191.84,404.7Z"/><path class="cls-8" d="M119.81,381.66l21.88,1.22c4.91-16.58,9.77-76,10.27-93.87.6-21.33,7.93-74.85,1.45-86s-35.8-2.26-35.8-2.26,3.66,65.16,2.2,85.95C118.54,304.72,116.58,357.67,119.81,381.66Z"/><polygon class="cls-7" points="144.06 376.87 142.63 384.49 118.91 383.69 118.05 376.37 144.06 376.87"/><path class="cls-8" d="M163.52,381.66l21.7,1.22c2.64-18.35,13.25-85.19,12.38-98-1.06-15.64-13.63-83.33-18.31-88.55s-38.88,8.31-38.88,8.31,14.06,58.21,25.15,83.39C167.86,293.26,161.74,359.34,163.52,381.66Z"/><polygon class="cls-7" points="187.7 377.44 186.59 384.49 162.48 382.88 161.99 375.5 187.7 377.44"/><polygon class="cls-17" points="154.09 255.96 147.72 233.78 136.42 229.93 145.26 237.07 152.37 277.51 154.09 255.96"/><path class="cls-8" d="M166.29,59.46c0,1,.4,1.68,1,1.78s1.11-.7,1.16-1.67-.38-1.68-1-1.78S166.4,58.54,166.29,59.46Z"/><path class="cls-30" d="M166.66,59.33a34.46,34.46,0,0,0,2.17,9,5,5,0,0,1-4.41-.37Z"/><path class="cls-8" d="M164.63,56.39a.57.57,0,0,1-.34-.08.58.58,0,0,1,0-.79h0a5.18,5.18,0,0,1,4.45-2.05.54.54,0,0,1,.47.58h0a.56.56,0,0,1-.6.48h0a4.17,4.17,0,0,0-3.5,1.68A.49.49,0,0,1,164.63,56.39Z"/><path class="cls-29" d="M166.68,72.18a12.94,12.94,0,0,1-.45,1.5,14.88,14.88,0,0,1-5.15,7,14.56,14.56,0,0,1-1.88,1.19,12.82,12.82,0,0,1-15.57-2.54C138.42,74,138.56,67.75,138,57.22A14.88,14.88,0,0,1,139,50.59a14,14,0,0,1,18.41-7.78h0C167.48,47,168.87,62.68,166.68,72.18Z"/><path class="cls-12" d="M161.05,80.71a15.4,15.4,0,0,1-1.89,1.19,12.8,12.8,0,0,1-11.27.5,17,17,0,0,1,1.84-3.57A19.87,19.87,0,0,1,161.05,80.71Z"/><path class="cls-29" d="M140.34,94.37c5.08,4.71,17.49,3,17.49,3s7.74-2.18,6.11-4.65c-4.55-.78-6.77-3-7.68-5.76a13.9,13.9,0,0,1-.46-5.33,27,27,0,0,1,.38-3L140.84,67C142.84,74.67,145.3,88.81,140.34,94.37Z"/><path class="cls-8" d="M161.05,62.59l2.21.85-1.1-4.64s3.24-5.07,0-9.46c0,0,9-2.79,3.9-7.61-1.88-1.8-4.22,0-10.41-2.75-3.35-1.51-13.85-1.62-14.37,2.75,0,0-7.56,0-8.37,13.18a26.72,26.72,0,0,0,8,20.84S150,78,154.52,74.2,161.05,62.59,161.05,62.59Z"/><path class="cls-29" d="M155.2,63.34A6.79,6.79,0,0,0,158.62,68c2.09.91,3.48-2.11,3.17-5.27-.29-2.82-1.71-6.77-3.95-6.24S154.47,60.5,155.2,63.34Z"/><path class="cls-7" d="M124.74,91.84s-3.57,1.13-5.34,1.8c-3.7,1.41-6.14,5.7-7.47,9.91-3.27,10.29-8.56,34.64-8.56,34.64l19.17,4.2,10.23-22.95Z"/><path class="cls-20" d="M124.74,91.84s-5.13,1-7.83,3.32c-2.06,1.76-3.69,4.33-5,8.39-3.27,10.29-8.56,34.64-8.56,34.64l19.17,4.2,10.23-22.95Z"/><path class="cls-7" d="M171.17,93c-5.65-.64-23-4.73-46.43-1.18l-5.47,90.07a245.39,245.39,0,0,1-2.78,25.6c23.77,10.63,51.88,7.59,67.77-1.34-.18.37-.7-9.46-1.52-23.85-1.43-25.37-3.78-64.93-6.82-87.83C175.84,93.92,171.74,93.08,171.17,93Z"/><g class="cls-31"><path class="cls-3" d="M171.17,93c-5.65-.64-23-4.73-46.43-1.18l-5.47,90.07a245.39,245.39,0,0,1-2.78,25.6c23.77,10.63,51.88,7.59,67.77-1.34-.18.37-.7-9.46-1.52-23.85-1.43-25.37-3.78-64.93-6.82-87.83C175.84,93.92,171.74,93.08,171.17,93Z"/></g><path class="cls-7" d="M140.09,90.9a8.29,8.29,0,0,1,2.82-4.42l13,1,6.1,4.19Z"/><path class="cls-20" d="M140.09,90.9a8.29,8.29,0,0,1,2.82-4.42l13,1,6.1,4.19Z"/><path class="cls-12" d="M170.57,121.05c2.08,10.15,5.08,30,10.74,37L180,137.89Z"/><polygon class="cls-12" points="121.33 142.11 121.83 116.1 116.59 140.87 121.33 142.11"/><path class="cls-29" d="M180.55,129.07c-.73.3,13.37,33.35,19.11,33.64s32.7-12.48,32.7-12.48l-6.05-7.52-20.37,1.22-10.4-23.05Z"/><path class="cls-7" d="M173.46,94.15c-7.32,5-10.94,16.43,8.67,51.6l21.17-13.47c-4.28-8.23-8.82-14.22-13.86-26.14C179.27,90.9,173.46,94.15,173.46,94.15Z"/><path class="cls-20" d="M173.46,94.15c-7.32,5-10.94,16.43,8.67,51.6l21.17-13.47c-4.28-8.23-8.82-14.22-13.86-26.14C179.27,90.9,173.46,94.15,173.46,94.15Z"/><path class="cls-29" d="M241.85,142.49c0-1.93-.57-4-1.57-4.09s-6.32,0-6.32,0h0c0-1.55,2.81-3.26,1.89-4.32-1.19-1.39-8.09,4.54-8.52,5.75a14.91,14.91,0,0,1-1.29,3l3.65,8.72s6.75,4.63,8.32,3a4.75,4.75,0,0,0,1.42-3.38s1.57-2.26,1.42-3.75S241.85,144.42,241.85,142.49Z"/></g></g></svg>